<?xml version="1.0" standalone="no"?>
<!DOCTYPE svg PUBLIC "-//W3C//DTD SVG 20010904//EN"
 "http://www.w3.org/TR/2001/REC-SVG-20010904/DTD/svg10.dtd">
<svg version="1.0" xmlns="http://www.w3.org/2000/svg"
 width="600.000000pt" height="658.000000pt" viewBox="0 0 600.000000 658.000000"
 preserveAspectRatio="xMidYMid meet">
<g transform="translate(0.000000,658.000000) scale(0.100000,-0.100000)"
fill="#000000" stroke="none">
<path d="M4835 5785 c-225 -41 -521 -164 -763 -317 l-97 -61 -50 27 c-259 139
-298 157 -292 142 31 -81 118 -338 116 -340 -2 -2 -30 -26 -61 -54 l-58 -51
-164 84 c-90 46 -166 82 -168 79 -3 -2 24 -81 59 -174 34 -94 63 -175 63 -180
0 -6 -51 -71 -114 -146 -519 -620 -836 -1330 -777 -1746 7 -51 9 -94 5 -95 -5
-2 -193 -118 -419 -259 -225 -141 -417 -260 -427 -265 -14 -8 -782 241 -916
296 -44 19 -41 11 30 -102 135 -215 254 -351 458 -522 194 -162 270 -233 333
-311 174 -217 204 -457 101 -812 -5 -17 62 -18 1303 -18 l1309 0 22 133 c12
72 44 256 72 407 27 151 73 406 100 565 121 698 134 737 460 1430 208 443 367
779 463 976 160 329 219 498 236 670 47 457 -313 738 -824 644z m299 -225 c32
-5 61 -12 64 -14 2 -3 -19 -76 -47 -163 -29 -87 -56 -171 -61 -187 -13 -37
-10 -36 167 70 161 96 158 95 167 53 33 -166 -16 -334 -224 -769 -117 -245
-354 -746 -542 -1150 -253 -539 -256 -553 -443 -1615 -52 -297 -98 -552 -101
-568 l-6 -27 -115 0 -115 0 4 97 c4 116 35 193 118 298 l49 64 -85 71 c-47 40
-91 70 -98 67 -7 -3 -34 -34 -59 -69 -112 -158 -157 -283 -157 -440 l0 -88
-114 0 -114 0 -6 57 c-19 156 -102 344 -216 490 l-17 22 -84 -65 c-46 -36 -88
-69 -92 -73 -4 -4 21 -51 56 -103 66 -99 110 -200 122 -281 l7 -47 -252 0
-253 0 7 47 c9 66 56 163 128 261 33 46 58 84 57 86 -2 1 -41 32 -87 69 -45
38 -87 65 -93 61 -25 -15 -133 -173 -169 -248 -40 -83 -70 -186 -70 -243 l0
-33 -238 0 -238 0 -1 148 c0 334 -123 566 -434 823 -54 45 -97 84 -95 86 2 3
60 -15 128 -38 l123 -42 130 80 c72 44 282 176 469 292 186 116 341 211 343
211 3 0 26 -17 52 -39 170 -142 423 -157 667 -40 240 116 488 362 743 738 83
123 221 347 221 359 0 7 -180 117 -192 117 -3 0 -43 -60 -87 -134 -368 -608
-710 -921 -1008 -921 -301 0 -371 294 -187 787 121 325 414 790 696 1107 l43
48 133 -66 c72 -36 134 -66 136 -66 5 0 -61 190 -89 257 l-16 37 58 52 c94 85
80 84 232 5 74 -39 137 -68 140 -66 3 3 -16 67 -42 142 -26 75 -44 140 -40
144 20 18 198 121 293 169 297 149 548 211 734 180z"/>
<path d="M3314 4073 c-177 -275 -315 -584 -350 -783 -62 -354 211 -329 548 48
99 110 98 125 -1 56 -153 -105 -289 -155 -324 -119 -58 57 23 413 190 838 19
49 33 91 30 93 -3 3 -45 -57 -93 -133z"/>
</g>
</svg>
