<svg width="108" height="82" viewBox="0 0 108 82" fill="none" xmlns="http://www.w3.org/2000/svg">
<mask id="path-1-outside-1_49_213" maskUnits="userSpaceOnUse" x="51.2855" y="31.0483" width="33" height="48" fill="black">
<rect fill="white" x="51.2855" y="31.0483" width="33" height="48"/>
<path fill-rule="evenodd" clip-rule="evenodd" d="M80.422 32.6575C79.5031 33.3254 78.1585 34.3703 77.4558 34.9624C77.2284 35.154 77.0438 35.3917 77.0457 35.4906C77.0513 35.7966 78.5682 39.3375 78.7578 39.4871C78.9182 39.6138 79.0283 39.5644 79.825 39.0073C81.803 37.6242 83.1006 36.4995 83.1006 36.1683C83.1006 36.0765 83.0255 35.808 82.9336 35.5718C82.8417 35.3355 82.5827 34.6667 82.358 34.0857C81.7699 32.5649 81.5465 32.0822 81.4151 32.049C81.3514 32.033 80.9045 32.3068 80.422 32.6575ZM77.8493 39.9779C77.757 40.1117 77.5598 40.8215 77.2263 42.2209C77.0086 43.1341 76.4721 45.366 76.2484 46.2885C75.6965 48.5647 75.0383 51.4694 74.9732 51.9156C74.8763 52.5796 74.9831 52.66 76.8889 53.3591C78.4159 53.9193 78.5005 53.9185 78.6247 53.3407C78.7099 52.9443 79.1038 51.3695 79.4638 49.9863C79.5319 49.7248 79.6426 49.2731 79.7098 48.9826C79.895 48.1821 80.4801 45.8242 80.9945 43.8057C81.0982 43.3989 81.2557 42.7333 81.3446 42.3265C81.4335 41.9198 81.5309 41.5114 81.5611 41.419C81.6491 41.1499 81.4792 41.0577 79.7444 40.4344C77.9147 39.777 77.9774 39.7921 77.8493 39.9779ZM57.0942 72.0123C57.0796 72.027 56.0237 72.0676 54.7478 72.1024C53.0012 72.1502 52.4106 72.1994 52.3566 72.3016C52.2756 72.4553 52.2571 77.0675 52.3361 77.4221C52.3644 77.5488 52.4329 77.669 52.4886 77.6891C52.6309 77.7408 61.6824 77.5702 61.8983 77.5119C62.071 77.4653 62.0752 77.3936 62.0611 74.7394L62.0466 72.0147L59.5838 72.0002C58.2292 71.9922 57.109 71.9976 57.0942 72.0123Z"/>
</mask>
<path fill-rule="evenodd" clip-rule="evenodd" d="M80.422 32.6575C79.5031 33.3254 78.1585 34.3703 77.4558 34.9624C77.2284 35.154 77.0438 35.3917 77.0457 35.4906C77.0513 35.7966 78.5682 39.3375 78.7578 39.4871C78.9182 39.6138 79.0283 39.5644 79.825 39.0073C81.803 37.6242 83.1006 36.4995 83.1006 36.1683C83.1006 36.0765 83.0255 35.808 82.9336 35.5718C82.8417 35.3355 82.5827 34.6667 82.358 34.0857C81.7699 32.5649 81.5465 32.0822 81.4151 32.049C81.3514 32.033 80.9045 32.3068 80.422 32.6575ZM77.8493 39.9779C77.757 40.1117 77.5598 40.8215 77.2263 42.2209C77.0086 43.1341 76.4721 45.366 76.2484 46.2885C75.6965 48.5647 75.0383 51.4694 74.9732 51.9156C74.8763 52.5796 74.9831 52.66 76.8889 53.3591C78.4159 53.9193 78.5005 53.9185 78.6247 53.3407C78.7099 52.9443 79.1038 51.3695 79.4638 49.9863C79.5319 49.7248 79.6426 49.2731 79.7098 48.9826C79.895 48.1821 80.4801 45.8242 80.9945 43.8057C81.0982 43.3989 81.2557 42.7333 81.3446 42.3265C81.4335 41.9198 81.5309 41.5114 81.5611 41.419C81.6491 41.1499 81.4792 41.0577 79.7444 40.4344C77.9147 39.777 77.9774 39.7921 77.8493 39.9779ZM57.0942 72.0123C57.0796 72.027 56.0237 72.0676 54.7478 72.1024C53.0012 72.1502 52.4106 72.1994 52.3566 72.3016C52.2756 72.4553 52.2571 77.0675 52.3361 77.4221C52.3644 77.5488 52.4329 77.669 52.4886 77.6891C52.6309 77.7408 61.6824 77.5702 61.8983 77.5119C62.071 77.4653 62.0752 77.3936 62.0611 74.7394L62.0466 72.0147L59.5838 72.0002C58.2292 71.9922 57.109 71.9976 57.0942 72.0123Z" fill="#F3B621"/>
<path fill-rule="evenodd" clip-rule="evenodd" d="M80.422 32.6575C79.5031 33.3254 78.1585 34.3703 77.4558 34.9624C77.2284 35.154 77.0438 35.3917 77.0457 35.4906C77.0513 35.7966 78.5682 39.3375 78.7578 39.4871C78.9182 39.6138 79.0283 39.5644 79.825 39.0073C81.803 37.6242 83.1006 36.4995 83.1006 36.1683C83.1006 36.0765 83.0255 35.808 82.9336 35.5718C82.8417 35.3355 82.5827 34.6667 82.358 34.0857C81.7699 32.5649 81.5465 32.0822 81.4151 32.049C81.3514 32.033 80.9045 32.3068 80.422 32.6575ZM77.8493 39.9779C77.757 40.1117 77.5598 40.8215 77.2263 42.2209C77.0086 43.1341 76.4721 45.366 76.2484 46.2885C75.6965 48.5647 75.0383 51.4694 74.9732 51.9156C74.8763 52.5796 74.9831 52.66 76.8889 53.3591C78.4159 53.9193 78.5005 53.9185 78.6247 53.3407C78.7099 52.9443 79.1038 51.3695 79.4638 49.9863C79.5319 49.7248 79.6426 49.2731 79.7098 48.9826C79.895 48.1821 80.4801 45.8242 80.9945 43.8057C81.0982 43.3989 81.2557 42.7333 81.3446 42.3265C81.4335 41.9198 81.5309 41.5114 81.5611 41.419C81.6491 41.1499 81.4792 41.0577 79.7444 40.4344C77.9147 39.777 77.9774 39.7921 77.8493 39.9779ZM57.0942 72.0123C57.0796 72.027 56.0237 72.0676 54.7478 72.1024C53.0012 72.1502 52.4106 72.1994 52.3566 72.3016C52.2756 72.4553 52.2571 77.0675 52.3361 77.4221C52.3644 77.5488 52.4329 77.669 52.4886 77.6891C52.6309 77.7408 61.6824 77.5702 61.8983 77.5119C62.071 77.4653 62.0752 77.3936 62.0611 74.7394L62.0466 72.0147L59.5838 72.0002C58.2292 71.9922 57.109 71.9976 57.0942 72.0123Z" stroke="black" stroke-width="2" mask="url(#path-1-outside-1_49_213)"/>
<mask id="path-2-outside-2_49_213" maskUnits="userSpaceOnUse" x="24.3484" y="31.3765" width="77" height="51" fill="black">
<rect fill="white" x="24.3484" y="31.3765" width="77" height="51"/>
<path fill-rule="evenodd" clip-rule="evenodd" d="M30.6569 32.4104C30.687 32.3951 30.7859 32.3765 31.056 32.3765C31.1856 32.3765 31.375 32.3765 31.5732 32.3951C31.8416 32.4203 33.9995 32.5412 34.9772 32.7697C37.3435 33.3227 39.2107 34.7288 39.9189 36.4908C40.0858 36.9065 40.2481 37.3757 40.2795 37.5335L40.3363 37.8205L41.8497 37.8492L43.3631 37.8781L43.4164 41.6668C43.4619 44.8992 43.4954 45.5966 43.6449 46.4159C43.8852 47.7339 44.366 48.8782 44.8362 49.2512C45.2256 49.5601 45.8903 49.7147 45.9908 49.5198C46.024 49.4553 45.9715 48.7039 45.874 47.85C45.6316 45.7276 45.4794 42.2141 45.5446 40.246C45.5928 38.7918 45.6176 38.5961 45.7731 38.4428C45.9768 38.242 48.8718 38.0631 49.3336 38.2228L49.597 38.314L49.6472 42.7794C49.689 46.5104 49.7221 47.3659 49.8488 47.9814C50.08 49.1043 50.258 49.6238 50.5745 50.099C50.8355 50.491 51.7143 51.2763 51.7827 51.1786C51.8107 51.1386 52.1242 47.3732 52.2724 45.2977C52.3159 44.6899 52.4342 43.1271 52.5356 41.8247C52.6369 40.5223 52.7541 39.0007 52.796 38.4433C52.9262 36.7093 53.0548 36.6021 54.9529 36.6448C56.6388 36.6827 56.8756 36.7406 56.9127 37.1235C56.9335 37.3383 56.9793 37.4005 57.0883 37.3622C59.4712 36.5248 61.2646 36.4536 62.5076 37.1467C63.0254 37.4354 63.8903 38.5296 64.0242 39.0652C64.1791 39.685 64.2769 39.6196 64.3439 38.8516C64.4857 37.2261 64.5988 36.9134 65.1336 36.6698C65.5329 36.4877 68.1863 36.5396 68.4495 36.7345C68.4873 36.7625 68.5182 36.8836 68.5182 37.0036C68.5182 37.2523 68.7609 37.2365 69.6596 36.929C70.9861 36.4752 72.9942 36.4849 73.8379 36.9492C74.758 37.4555 75.5248 38.5131 75.7245 39.5516C76.2618 42.3444 75.4556 45.9243 73.6999 48.5427C72.1814 50.8074 70.5758 52.1632 67.7153 53.5965C67.2353 53.837 67.2569 53.7413 67.1051 56.2957C67.05 57.2218 66.9602 58.3584 66.9055 58.8215L66.8061 59.6634L66.2982 59.6951C65.8325 59.7242 64.11 59.4901 63.6105 59.3299C63.3685 59.2524 63.3616 59.1744 63.7326 60.7159C63.885 61.3494 63.9777 62.0472 64.0125 62.8233L64.0645 63.9836L64.6889 63.6047C65.0324 63.3963 65.7814 62.973 66.3531 62.6642L67.3929 62.1027L67.6701 62.2973C67.8227 62.4044 68.3031 62.8066 68.7377 63.1912C69.5522 63.9119 71.9469 66.0047 72.1633 66.1849C72.2304 66.2406 72.3137 66.2522 72.3486 66.2104C72.3834 66.1687 72.4267 64.9864 72.4449 63.5831C72.4821 60.705 72.4878 60.6436 72.748 60.3531C73.0065 60.0644 74.8484 58.6004 75.221 58.3874L75.5233 58.2146L77.0035 59.1392C77.8176 59.6478 78.5627 60.1225 78.6593 60.1942C79.0484 60.4831 84.8681 64.1483 84.8882 64.1171C84.9002 64.0987 85.0879 63.6574 85.3055 63.1365C86.4178 60.4732 87.7543 58.6978 89.7158 57.2778C90.1469 56.9657 90.5132 56.6614 90.5298 56.6014C90.5465 56.5415 90.1938 56.3622 89.7461 56.2029C85.9159 54.8408 83.339 52.2045 82.2652 48.5496C82.05 47.8171 81.7762 46.0001 81.7762 45.3039C81.7762 44.5454 82.1496 42.205 82.3976 41.4099C83.2864 38.5593 85.2876 36.1941 87.5656 35.3018C88.4597 34.9516 88.7308 34.9145 88.8749 35.1226C88.9277 35.1989 89.0348 35.7317 89.1126 36.3066C89.4285 38.636 89.5515 39.7301 89.5063 39.8096C89.4803 39.8556 89.2613 39.9565 89.0198 40.0338C88.7784 40.111 88.4097 40.2685 88.2005 40.3837C87.5219 40.7572 86.4876 42.056 86.2978 42.7726C86.2424 42.9816 86.2605 42.9977 86.4868 42.9416C87.1991 42.7651 89.8982 42.3498 90.4896 42.3259L91.1692 42.2983L91.1703 41.7194C91.1755 38.5769 92.7806 36.03 95.2537 35.2396C95.9629 35.013 98.2288 34.9043 98.4135 35.0881C98.5289 35.2028 98.5394 35.5134 98.4902 37.3389C98.4588 38.5037 98.4022 39.5573 98.3644 39.6802C98.3008 39.8871 98.2176 39.9074 97.2576 39.9508C95.7111 40.0208 95.2098 40.3916 95.2098 41.4656C95.2098 42.3873 95.674 43.3271 96.8392 44.7651C98.7002 47.0614 99.1738 47.9709 99.4097 49.7012C99.7179 51.9615 99.1274 54.005 97.6978 55.6267C96.6608 56.8029 95.4318 57.5368 93.3784 58.206C93.2901 58.2348 93.2752 58.3472 93.3215 58.6385C93.564 60.1671 93.6193 61.7114 93.4319 61.7218C92.2134 61.789 91.2552 62.4371 90.3198 63.8263C89.8742 64.4881 89.4285 65.4505 89.5178 65.5576C89.5424 65.5872 90.5073 65.4479 91.6619 65.2482C92.8164 65.0484 94.1546 64.8705 94.6357 64.8527C95.6552 64.815 95.5673 64.6999 95.7364 66.2938C96.0244 69.0079 96.0883 69.861 96.0107 69.954C95.9653 70.0084 94.6504 70.3569 93.0886 70.7283C91.5268 71.0998 90.198 71.4255 90.1355 71.452C89.715 71.6307 91.4013 73.3964 92.8475 74.2918C93.5736 74.7413 95.8214 75.7131 96.135 75.7131C96.3752 75.7131 96.375 76.0166 96.1341 76.9513C95.7378 78.4893 95.5876 79.0952 95.375 80.0136C95.139 81.0338 95.0563 81.108 94.3683 80.9162C91.6822 80.1678 88.649 78.155 87.0449 76.0568C85.557 74.1105 84.5946 71.4738 84.4246 68.8781L84.3664 67.9895L84.0477 68.7203C83.8338 69.2107 83.6704 69.4617 83.5505 69.4835C83.4506 69.5017 81.9244 68.6361 80.0815 67.5161C78.2717 66.4162 76.7669 65.5451 76.7374 65.5804C76.6627 65.67 76.677 66.9266 76.7676 68.2394C76.8752 69.7971 76.7489 71.127 76.4124 71.9807C76.0977 72.779 75.4921 73.6165 74.9583 73.9915C74.5588 74.2721 73.6265 74.6606 73.3526 74.6606C73.2156 74.6606 72.7429 74.2443 70.6839 72.3103C69.9136 71.5868 68.8754 70.6265 68.7344 70.5072C68.6684 70.4514 68.5829 70.4436 68.5444 70.4899C68.3839 70.6826 68.5054 74.5737 68.7272 76.3445C68.9141 77.8374 68.9271 78.0974 68.8195 78.1977C68.6698 78.3371 65.361 78.8999 64.6111 78.9135L64.0842 78.923L64.0137 77.1339C63.9749 76.1498 63.9603 72.9531 63.9811 70.0299C64.0126 65.5891 64.0004 64.793 63.9064 65.1887C63.1589 68.3364 61.4724 70.5733 59.2113 71.4158C58.2676 71.7675 56.1052 71.7675 54.9968 71.4159C53.4851 70.9363 51.8756 69.7545 51.0611 68.5262C50.0945 67.0684 49.7725 65.9047 49.7885 63.9258C49.8028 62.148 50.1204 60.9029 50.9378 59.4196C51.2579 58.839 51.3376 58.4912 51.4393 57.2353L51.4994 56.491L51.0312 56.3651C50.7736 56.296 50.1815 56.0079 49.7154 55.725C48.8965 55.228 48.8663 55.2183 48.8194 55.4374C48.5907 56.5035 47.562 60.529 47.3763 61.0842C47.2001 61.6108 46.5458 64.1447 46.5783 64.1743C46.5968 64.1911 47.1057 64.3108 47.7093 64.4404C49.5033 64.8256 49.4449 64.7954 49.5174 65.3749C49.5926 65.9764 49.2863 68.5897 49.0194 69.6235C48.8574 70.2509 48.8118 70.3287 48.5727 70.386C48.3466 70.4402 47.3352 70.2822 45.6021 69.9219C45.3848 69.8768 45.1797 69.8707 45.1465 69.9086C45.1133 69.9464 44.9815 70.4035 44.8535 70.9245C44.4662 72.5027 44.2141 73.4995 43.7555 75.2667C43.6543 75.657 43.5191 76.213 43.4551 76.5024C43.391 76.7918 43.2365 77.3982 43.1116 77.85C42.9866 78.3017 42.8425 78.8583 42.7911 79.0866C42.708 79.4563 42.6681 79.5018 42.4267 79.5018C42.1826 79.5018 38.7219 78.2438 38.4023 78.0387C38.2354 77.9317 38.1843 77.5369 38.3005 77.2497C38.3496 77.1281 38.4965 76.6261 38.6268 76.134C38.7571 75.642 38.9925 74.7659 39.1501 74.187C39.3076 73.6082 39.5432 72.7084 39.6739 72.1874C39.8044 71.6665 39.9467 71.1218 39.9899 70.9771C40.0793 70.6777 40.5096 68.8935 40.5096 68.8223C40.5096 68.7181 38.2159 68.1355 37.8055 68.1355C37.6639 68.1355 37.5931 68.2781 37.445 68.8622C37.3438 69.262 37.2614 69.6291 37.262 69.6779C37.2625 69.7268 37.1028 70.3825 36.9069 71.135C36.7111 71.8875 36.4748 72.8233 36.3819 73.2146C36.0691 74.5313 35.8711 75.3384 35.5628 76.555C35.069 78.5034 34.8154 79.5339 34.7522 79.8499C34.638 80.4209 34.4163 80.4787 33.4813 80.1811C31.6588 79.6008 30.45 79.1549 30.3296 79.0186C30.1984 78.8696 30.2698 78.4597 30.7685 76.5024C30.857 76.1551 31.0137 75.5157 31.1166 75.0816C31.2196 74.6475 31.3589 74.0792 31.4263 73.8187C31.5874 73.1951 31.8009 72.336 32.3026 70.293C32.53 69.3669 32.7855 68.3487 32.8704 68.0303C32.9553 67.7119 33.05 67.3223 33.0807 67.1643C33.1461 66.8284 33.1825 66.8444 31.8172 66.6053C31.3102 66.5165 30.8484 66.3863 30.791 66.3161C30.7105 66.2176 30.7131 66.0448 30.8024 65.5571C30.8661 65.2098 31.0294 64.1262 31.1653 63.1492C31.3186 62.0467 31.4667 61.2924 31.5553 61.1611L31.6983 60.9495L32.9651 61.1689C33.6618 61.2897 34.2633 61.3508 34.3018 61.3049C34.4334 61.1482 35.5084 57.1758 35.8996 55.4011C35.9825 55.0248 36.1216 54.4092 36.2086 54.0329C36.2956 53.6567 36.3934 53.1949 36.4258 53.0067C36.522 52.4481 36.7386 52.4601 38.5218 53.1229C39.3978 53.4485 40.3219 53.7883 40.5754 53.878C40.9031 53.9939 41.0364 54.0941 41.0364 54.2245C41.0364 54.3253 40.8359 55.2114 40.591 56.1937C40.346 57.1759 39.994 58.5952 39.8088 59.3477C39.6235 60.1002 39.3757 61.1057 39.2581 61.5822C39.0128 62.5758 38.9317 62.457 40.0267 62.7082C40.413 62.797 40.9535 62.9344 41.2278 63.0138C41.5021 63.0931 41.7642 63.1295 41.8103 63.0946C41.8563 63.0598 41.9981 62.6287 42.1252 62.1367C42.2524 61.6447 42.3928 61.1474 42.4372 61.0316C42.5172 60.8229 44.0371 55.2125 44.0558 55.0569C44.0611 55.0124 43.8473 54.8681 43.5805 54.7364C40.9398 53.4318 39.5568 49.7711 39.3488 43.5349C39.322 42.732 39.2257 42.7042 38.8119 43.3798C38.153 44.4558 36.6701 46.0401 35.3139 47.1174C34.4912 47.7708 32.4504 49.0145 31.4877 49.4492C31.0071 49.6661 30.8415 49.7925 30.8128 49.9641C30.7595 50.2826 30.5063 52.4352 30.3961 53.5067C30.2773 54.6616 30.2465 54.7036 29.5818 54.619C27.8531 54.3991 26.7426 54.2185 26.5586 54.1275L26.3484 54.0237L26.4086 52.6338C26.4417 51.8694 26.5068 50.8414 26.5533 50.3494C26.5997 49.8574 26.6934 48.8392 26.7616 48.0867C26.9877 45.5855 27.1668 43.7833 27.2945 42.7193C27.364 42.1404 27.4648 41.1712 27.5183 40.5655C27.5719 39.9597 27.6333 39.43 27.6548 39.3883C27.6763 39.3466 27.7549 38.753 27.8293 38.0691C28.0564 35.9829 28.4362 34.3144 28.4362 34.1432C28.4362 33.9719 28.4362 33.8269 28.4362 33.8269V33.3114C28.5027 33.3192 29.2207 32.6343 30.6569 32.4104ZM55.9626 61.3582C55.0831 61.6402 54.5742 62.4061 54.5625 63.4653C54.546 64.9708 55.5886 66.0191 57.1977 66.115C58.0595 66.1663 58.3965 66.0212 58.9705 65.3514C59.8679 64.3046 59.9768 62.6618 59.2009 61.8792C58.5878 61.2609 57.0418 61.0121 55.9626 61.3582ZM47.6745 54.4855C47.5288 54.6132 47.533 54.6302 47.7377 54.7421C47.8584 54.8079 48.1087 54.8911 48.2941 54.927L48.6312 54.992L48.3272 54.6704C47.9885 54.3119 47.9009 54.2871 47.6745 54.4855ZM63.4801 46.3502C62.6239 48.3201 61.0347 50.4599 59.5186 51.6843C58.7033 52.3427 57.3681 53.1819 56.4455 53.6156C55.7498 53.9428 55.729 53.9739 55.6716 54.7696L55.6221 55.4537L57.1313 55.4588C58.818 55.4643 59.3881 55.5893 60.503 56.1977C61.2994 56.6322 61.8614 57.0921 62.3944 57.7457C62.6555 58.0659 62.8247 58.2055 62.8462 58.1186C62.8945 57.9227 63.1482 55.0005 63.21 53.9277C63.2383 53.4357 63.2969 52.6542 63.3403 52.1912C63.3836 51.7281 63.4604 50.6625 63.5111 49.8232C63.5616 48.9839 63.6459 47.8946 63.6984 47.4026C63.7508 46.9106 63.7797 46.3423 63.7626 46.1397L63.7316 45.7713L63.4801 46.3502ZM91.3531 43.8243C91.349 44.0269 91.3928 44.7972 91.4503 45.536C91.5151 46.3697 91.5236 46.9163 91.4726 46.9767C91.3976 47.0654 89.415 47.584 87.5711 47.9972C87.1606 48.0892 86.7914 48.2011 86.7507 48.2459C86.6484 48.3585 87.2212 49.0952 87.8674 49.6818C88.5212 50.2756 89.2054 50.6593 90.5963 51.2128C91.178 51.4444 91.6871 51.6709 91.7275 51.7166C91.7681 51.7622 91.7217 52.1362 91.6245 52.5478C91.5274 52.9594 91.4745 53.3011 91.507 53.3069C91.683 53.3386 92.2713 53.2664 92.9709 53.1272C95.359 52.6517 96.0166 51.1646 94.7589 49.0834C94.6026 48.8248 94.076 48.0922 93.5887 47.4554C92.2529 45.7101 91.8167 44.9412 91.4089 43.6138C91.3822 43.527 91.3571 43.6217 91.3531 43.8243ZM58.5089 41.5724C57.7178 41.895 56.858 42.4286 56.7596 42.6581C56.6473 42.9196 56.5922 43.4213 56.4467 45.5082C56.372 46.5791 56.2886 47.5855 56.2614 47.7446C56.1888 48.1706 56.3428 48.1183 57.1911 47.4293C58.1098 46.683 59.2434 45.3415 59.6411 44.5298C60.2384 43.3108 60.5406 41.8546 60.2756 41.4718C60.0924 41.2071 59.2929 41.2526 58.5089 41.5724ZM70.7132 41.266C70.2587 41.3571 69.5935 41.6541 68.9376 42.0585C68.1666 42.5339 68.228 42.3727 68.0852 44.2979C68.0379 44.9346 67.9556 45.8961 67.9021 46.4347C67.7472 47.9971 67.7424 47.9885 68.4691 47.4565C70.3427 46.0849 71.7295 43.897 71.8339 42.1478C71.8771 41.4221 71.8737 41.4072 71.641 41.3012C71.4045 41.1933 71.1274 41.1828 70.7132 41.266ZM32.2352 37.4686C32.2095 37.5201 32.1616 37.8702 32.1289 38.2464C32.0961 38.6227 32.0305 39.2031 31.9832 39.5362C31.8703 40.331 31.555 43.1936 31.5544 43.4297C31.5541 43.5309 31.616 43.6138 31.6919 43.6138C31.8788 43.6138 33.5911 42.5774 34.1792 42.1083C35.563 41.0044 36.3927 39.4759 36.0386 38.6826C35.9139 38.4034 35.3059 38.0272 34.4957 37.7277C33.8433 37.4866 32.3136 37.3112 32.2352 37.4686Z"/>
</mask>
<path fill-rule="evenodd" clip-rule="evenodd" d="M30.6569 32.4104C30.687 32.3951 30.7859 32.3765 31.056 32.3765C31.1856 32.3765 31.375 32.3765 31.5732 32.3951C31.8416 32.4203 33.9995 32.5412 34.9772 32.7697C37.3435 33.3227 39.2107 34.7288 39.9189 36.4908C40.0858 36.9065 40.2481 37.3757 40.2795 37.5335L40.3363 37.8205L41.8497 37.8492L43.3631 37.8781L43.4164 41.6668C43.4619 44.8992 43.4954 45.5966 43.6449 46.4159C43.8852 47.7339 44.366 48.8782 44.8362 49.2512C45.2256 49.5601 45.8903 49.7147 45.9908 49.5198C46.024 49.4553 45.9715 48.7039 45.874 47.85C45.6316 45.7276 45.4794 42.2141 45.5446 40.246C45.5928 38.7918 45.6176 38.5961 45.7731 38.4428C45.9768 38.242 48.8718 38.0631 49.3336 38.2228L49.597 38.314L49.6472 42.7794C49.689 46.5104 49.7221 47.3659 49.8488 47.9814C50.08 49.1043 50.258 49.6238 50.5745 50.099C50.8355 50.491 51.7143 51.2763 51.7827 51.1786C51.8107 51.1386 52.1242 47.3732 52.2724 45.2977C52.3159 44.6899 52.4342 43.1271 52.5356 41.8247C52.6369 40.5223 52.7541 39.0007 52.796 38.4433C52.9262 36.7093 53.0548 36.6021 54.9529 36.6448C56.6388 36.6827 56.8756 36.7406 56.9127 37.1235C56.9335 37.3383 56.9793 37.4005 57.0883 37.3622C59.4712 36.5248 61.2646 36.4536 62.5076 37.1467C63.0254 37.4354 63.8903 38.5296 64.0242 39.0652C64.1791 39.685 64.2769 39.6196 64.3439 38.8516C64.4857 37.2261 64.5988 36.9134 65.1336 36.6698C65.5329 36.4877 68.1863 36.5396 68.4495 36.7345C68.4873 36.7625 68.5182 36.8836 68.5182 37.0036C68.5182 37.2523 68.7609 37.2365 69.6596 36.929C70.9861 36.4752 72.9942 36.4849 73.8379 36.9492C74.758 37.4555 75.5248 38.5131 75.7245 39.5516C76.2618 42.3444 75.4556 45.9243 73.6999 48.5427C72.1814 50.8074 70.5758 52.1632 67.7153 53.5965C67.2353 53.837 67.2569 53.7413 67.1051 56.2957C67.05 57.2218 66.9602 58.3584 66.9055 58.8215L66.8061 59.6634L66.2982 59.6951C65.8325 59.7242 64.11 59.4901 63.6105 59.3299C63.3685 59.2524 63.3616 59.1744 63.7326 60.7159C63.885 61.3494 63.9777 62.0472 64.0125 62.8233L64.0645 63.9836L64.6889 63.6047C65.0324 63.3963 65.7814 62.973 66.3531 62.6642L67.3929 62.1027L67.6701 62.2973C67.8227 62.4044 68.3031 62.8066 68.7377 63.1912C69.5522 63.9119 71.9469 66.0047 72.1633 66.1849C72.2304 66.2406 72.3137 66.2522 72.3486 66.2104C72.3834 66.1687 72.4267 64.9864 72.4449 63.5831C72.4821 60.705 72.4878 60.6436 72.748 60.3531C73.0065 60.0644 74.8484 58.6004 75.221 58.3874L75.5233 58.2146L77.0035 59.1392C77.8176 59.6478 78.5627 60.1225 78.6593 60.1942C79.0484 60.4831 84.8681 64.1483 84.8882 64.1171C84.9002 64.0987 85.0879 63.6574 85.3055 63.1365C86.4178 60.4732 87.7543 58.6978 89.7158 57.2778C90.1469 56.9657 90.5132 56.6614 90.5298 56.6014C90.5465 56.5415 90.1938 56.3622 89.7461 56.2029C85.9159 54.8408 83.339 52.2045 82.2652 48.5496C82.05 47.8171 81.7762 46.0001 81.7762 45.3039C81.7762 44.5454 82.1496 42.205 82.3976 41.4099C83.2864 38.5593 85.2876 36.1941 87.5656 35.3018C88.4597 34.9516 88.7308 34.9145 88.8749 35.1226C88.9277 35.1989 89.0348 35.7317 89.1126 36.3066C89.4285 38.636 89.5515 39.7301 89.5063 39.8096C89.4803 39.8556 89.2613 39.9565 89.0198 40.0338C88.7784 40.111 88.4097 40.2685 88.2005 40.3837C87.5219 40.7572 86.4876 42.056 86.2978 42.7726C86.2424 42.9816 86.2605 42.9977 86.4868 42.9416C87.1991 42.7651 89.8982 42.3498 90.4896 42.3259L91.1692 42.2983L91.1703 41.7194C91.1755 38.5769 92.7806 36.03 95.2537 35.2396C95.9629 35.013 98.2288 34.9043 98.4135 35.0881C98.5289 35.2028 98.5394 35.5134 98.4902 37.3389C98.4588 38.5037 98.4022 39.5573 98.3644 39.6802C98.3008 39.8871 98.2176 39.9074 97.2576 39.9508C95.7111 40.0208 95.2098 40.3916 95.2098 41.4656C95.2098 42.3873 95.674 43.3271 96.8392 44.7651C98.7002 47.0614 99.1738 47.9709 99.4097 49.7012C99.7179 51.9615 99.1274 54.005 97.6978 55.6267C96.6608 56.8029 95.4318 57.5368 93.3784 58.206C93.2901 58.2348 93.2752 58.3472 93.3215 58.6385C93.564 60.1671 93.6193 61.7114 93.4319 61.7218C92.2134 61.789 91.2552 62.4371 90.3198 63.8263C89.8742 64.4881 89.4285 65.4505 89.5178 65.5576C89.5424 65.5872 90.5073 65.4479 91.6619 65.2482C92.8164 65.0484 94.1546 64.8705 94.6357 64.8527C95.6552 64.815 95.5673 64.6999 95.7364 66.2938C96.0244 69.0079 96.0883 69.861 96.0107 69.954C95.9653 70.0084 94.6504 70.3569 93.0886 70.7283C91.5268 71.0998 90.198 71.4255 90.1355 71.452C89.715 71.6307 91.4013 73.3964 92.8475 74.2918C93.5736 74.7413 95.8214 75.7131 96.135 75.7131C96.3752 75.7131 96.375 76.0166 96.1341 76.9513C95.7378 78.4893 95.5876 79.0952 95.375 80.0136C95.139 81.0338 95.0563 81.108 94.3683 80.9162C91.6822 80.1678 88.649 78.155 87.0449 76.0568C85.557 74.1105 84.5946 71.4738 84.4246 68.8781L84.3664 67.9895L84.0477 68.7203C83.8338 69.2107 83.6704 69.4617 83.5505 69.4835C83.4506 69.5017 81.9244 68.6361 80.0815 67.5161C78.2717 66.4162 76.7669 65.5451 76.7374 65.5804C76.6627 65.67 76.677 66.9266 76.7676 68.2394C76.8752 69.7971 76.7489 71.127 76.4124 71.9807C76.0977 72.779 75.4921 73.6165 74.9583 73.9915C74.5588 74.2721 73.6265 74.6606 73.3526 74.6606C73.2156 74.6606 72.7429 74.2443 70.6839 72.3103C69.9136 71.5868 68.8754 70.6265 68.7344 70.5072C68.6684 70.4514 68.5829 70.4436 68.5444 70.4899C68.3839 70.6826 68.5054 74.5737 68.7272 76.3445C68.9141 77.8374 68.9271 78.0974 68.8195 78.1977C68.6698 78.3371 65.361 78.8999 64.6111 78.9135L64.0842 78.923L64.0137 77.1339C63.9749 76.1498 63.9603 72.9531 63.9811 70.0299C64.0126 65.5891 64.0004 64.793 63.9064 65.1887C63.1589 68.3364 61.4724 70.5733 59.2113 71.4158C58.2676 71.7675 56.1052 71.7675 54.9968 71.4159C53.4851 70.9363 51.8756 69.7545 51.0611 68.5262C50.0945 67.0684 49.7725 65.9047 49.7885 63.9258C49.8028 62.148 50.1204 60.9029 50.9378 59.4196C51.2579 58.839 51.3376 58.4912 51.4393 57.2353L51.4994 56.491L51.0312 56.3651C50.7736 56.296 50.1815 56.0079 49.7154 55.725C48.8965 55.228 48.8663 55.2183 48.8194 55.4374C48.5907 56.5035 47.562 60.529 47.3763 61.0842C47.2001 61.6108 46.5458 64.1447 46.5783 64.1743C46.5968 64.1911 47.1057 64.3108 47.7093 64.4404C49.5033 64.8256 49.4449 64.7954 49.5174 65.3749C49.5926 65.9764 49.2863 68.5897 49.0194 69.6235C48.8574 70.2509 48.8118 70.3287 48.5727 70.386C48.3466 70.4402 47.3352 70.2822 45.6021 69.9219C45.3848 69.8768 45.1797 69.8707 45.1465 69.9086C45.1133 69.9464 44.9815 70.4035 44.8535 70.9245C44.4662 72.5027 44.2141 73.4995 43.7555 75.2667C43.6543 75.657 43.5191 76.213 43.4551 76.5024C43.391 76.7918 43.2365 77.3982 43.1116 77.85C42.9866 78.3017 42.8425 78.8583 42.7911 79.0866C42.708 79.4563 42.6681 79.5018 42.4267 79.5018C42.1826 79.5018 38.7219 78.2438 38.4023 78.0387C38.2354 77.9317 38.1843 77.5369 38.3005 77.2497C38.3496 77.1281 38.4965 76.6261 38.6268 76.134C38.7571 75.642 38.9925 74.7659 39.1501 74.187C39.3076 73.6082 39.5432 72.7084 39.6739 72.1874C39.8044 71.6665 39.9467 71.1218 39.9899 70.9771C40.0793 70.6777 40.5096 68.8935 40.5096 68.8223C40.5096 68.7181 38.2159 68.1355 37.8055 68.1355C37.6639 68.1355 37.5931 68.2781 37.445 68.8622C37.3438 69.262 37.2614 69.6291 37.262 69.6779C37.2625 69.7268 37.1028 70.3825 36.9069 71.135C36.7111 71.8875 36.4748 72.8233 36.3819 73.2146C36.0691 74.5313 35.8711 75.3384 35.5628 76.555C35.069 78.5034 34.8154 79.5339 34.7522 79.8499C34.638 80.4209 34.4163 80.4787 33.4813 80.1811C31.6588 79.6008 30.45 79.1549 30.3296 79.0186C30.1984 78.8696 30.2698 78.4597 30.7685 76.5024C30.857 76.1551 31.0137 75.5157 31.1166 75.0816C31.2196 74.6475 31.3589 74.0792 31.4263 73.8187C31.5874 73.1951 31.8009 72.336 32.3026 70.293C32.53 69.3669 32.7855 68.3487 32.8704 68.0303C32.9553 67.7119 33.05 67.3223 33.0807 67.1643C33.1461 66.8284 33.1825 66.8444 31.8172 66.6053C31.3102 66.5165 30.8484 66.3863 30.791 66.3161C30.7105 66.2176 30.7131 66.0448 30.8024 65.5571C30.8661 65.2098 31.0294 64.1262 31.1653 63.1492C31.3186 62.0467 31.4667 61.2924 31.5553 61.1611L31.6983 60.9495L32.9651 61.1689C33.6618 61.2897 34.2633 61.3508 34.3018 61.3049C34.4334 61.1482 35.5084 57.1758 35.8996 55.4011C35.9825 55.0248 36.1216 54.4092 36.2086 54.0329C36.2956 53.6567 36.3934 53.1949 36.4258 53.0067C36.522 52.4481 36.7386 52.4601 38.5218 53.1229C39.3978 53.4485 40.3219 53.7883 40.5754 53.878C40.9031 53.9939 41.0364 54.0941 41.0364 54.2245C41.0364 54.3253 40.8359 55.2114 40.591 56.1937C40.346 57.1759 39.994 58.5952 39.8088 59.3477C39.6235 60.1002 39.3757 61.1057 39.2581 61.5822C39.0128 62.5758 38.9317 62.457 40.0267 62.7082C40.413 62.797 40.9535 62.9344 41.2278 63.0138C41.5021 63.0931 41.7642 63.1295 41.8103 63.0946C41.8563 63.0598 41.9981 62.6287 42.1252 62.1367C42.2524 61.6447 42.3928 61.1474 42.4372 61.0316C42.5172 60.8229 44.0371 55.2125 44.0558 55.0569C44.0611 55.0124 43.8473 54.8681 43.5805 54.7364C40.9398 53.4318 39.5568 49.7711 39.3488 43.5349C39.322 42.732 39.2257 42.7042 38.8119 43.3798C38.153 44.4558 36.6701 46.0401 35.3139 47.1174C34.4912 47.7708 32.4504 49.0145 31.4877 49.4492C31.0071 49.6661 30.8415 49.7925 30.8128 49.9641C30.7595 50.2826 30.5063 52.4352 30.3961 53.5067C30.2773 54.6616 30.2465 54.7036 29.5818 54.619C27.8531 54.3991 26.7426 54.2185 26.5586 54.1275L26.3484 54.0237L26.4086 52.6338C26.4417 51.8694 26.5068 50.8414 26.5533 50.3494C26.5997 49.8574 26.6934 48.8392 26.7616 48.0867C26.9877 45.5855 27.1668 43.7833 27.2945 42.7193C27.364 42.1404 27.4648 41.1712 27.5183 40.5655C27.5719 39.9597 27.6333 39.43 27.6548 39.3883C27.6763 39.3466 27.7549 38.753 27.8293 38.0691C28.0564 35.9829 28.4362 34.3144 28.4362 34.1432C28.4362 33.9719 28.4362 33.8269 28.4362 33.8269V33.3114C28.5027 33.3192 29.2207 32.6343 30.6569 32.4104ZM55.9626 61.3582C55.0831 61.6402 54.5742 62.4061 54.5625 63.4653C54.546 64.9708 55.5886 66.0191 57.1977 66.115C58.0595 66.1663 58.3965 66.0212 58.9705 65.3514C59.8679 64.3046 59.9768 62.6618 59.2009 61.8792C58.5878 61.2609 57.0418 61.0121 55.9626 61.3582ZM47.6745 54.4855C47.5288 54.6132 47.533 54.6302 47.7377 54.7421C47.8584 54.8079 48.1087 54.8911 48.2941 54.927L48.6312 54.992L48.3272 54.6704C47.9885 54.3119 47.9009 54.2871 47.6745 54.4855ZM63.4801 46.3502C62.6239 48.3201 61.0347 50.4599 59.5186 51.6843C58.7033 52.3427 57.3681 53.1819 56.4455 53.6156C55.7498 53.9428 55.729 53.9739 55.6716 54.7696L55.6221 55.4537L57.1313 55.4588C58.818 55.4643 59.3881 55.5893 60.503 56.1977C61.2994 56.6322 61.8614 57.0921 62.3944 57.7457C62.6555 58.0659 62.8247 58.2055 62.8462 58.1186C62.8945 57.9227 63.1482 55.0005 63.21 53.9277C63.2383 53.4357 63.2969 52.6542 63.3403 52.1912C63.3836 51.7281 63.4604 50.6625 63.5111 49.8232C63.5616 48.9839 63.6459 47.8946 63.6984 47.4026C63.7508 46.9106 63.7797 46.3423 63.7626 46.1397L63.7316 45.7713L63.4801 46.3502ZM91.3531 43.8243C91.349 44.0269 91.3928 44.7972 91.4503 45.536C91.5151 46.3697 91.5236 46.9163 91.4726 46.9767C91.3976 47.0654 89.415 47.584 87.5711 47.9972C87.1606 48.0892 86.7914 48.2011 86.7507 48.2459C86.6484 48.3585 87.2212 49.0952 87.8674 49.6818C88.5212 50.2756 89.2054 50.6593 90.5963 51.2128C91.178 51.4444 91.6871 51.6709 91.7275 51.7166C91.7681 51.7622 91.7217 52.1362 91.6245 52.5478C91.5274 52.9594 91.4745 53.3011 91.507 53.3069C91.683 53.3386 92.2713 53.2664 92.9709 53.1272C95.359 52.6517 96.0166 51.1646 94.7589 49.0834C94.6026 48.8248 94.076 48.0922 93.5887 47.4554C92.2529 45.7101 91.8167 44.9412 91.4089 43.6138C91.3822 43.527 91.3571 43.6217 91.3531 43.8243ZM58.5089 41.5724C57.7178 41.895 56.858 42.4286 56.7596 42.6581C56.6473 42.9196 56.5922 43.4213 56.4467 45.5082C56.372 46.5791 56.2886 47.5855 56.2614 47.7446C56.1888 48.1706 56.3428 48.1183 57.1911 47.4293C58.1098 46.683 59.2434 45.3415 59.6411 44.5298C60.2384 43.3108 60.5406 41.8546 60.2756 41.4718C60.0924 41.2071 59.2929 41.2526 58.5089 41.5724ZM70.7132 41.266C70.2587 41.3571 69.5935 41.6541 68.9376 42.0585C68.1666 42.5339 68.228 42.3727 68.0852 44.2979C68.0379 44.9346 67.9556 45.8961 67.9021 46.4347C67.7472 47.9971 67.7424 47.9885 68.4691 47.4565C70.3427 46.0849 71.7295 43.897 71.8339 42.1478C71.8771 41.4221 71.8737 41.4072 71.641 41.3012C71.4045 41.1933 71.1274 41.1828 70.7132 41.266ZM32.2352 37.4686C32.2095 37.5201 32.1616 37.8702 32.1289 38.2464C32.0961 38.6227 32.0305 39.2031 31.9832 39.5362C31.8703 40.331 31.555 43.1936 31.5544 43.4297C31.5541 43.5309 31.616 43.6138 31.6919 43.6138C31.8788 43.6138 33.5911 42.5774 34.1792 42.1083C35.563 41.0044 36.3927 39.4759 36.0386 38.6826C35.9139 38.4034 35.3059 38.0272 34.4957 37.7277C33.8433 37.4866 32.3136 37.3112 32.2352 37.4686Z" fill="#F3B621"/>
<path fill-rule="evenodd" clip-rule="evenodd" d="M30.6569 32.4104C30.687 32.3951 30.7859 32.3765 31.056 32.3765C31.1856 32.3765 31.375 32.3765 31.5732 32.3951C31.8416 32.4203 33.9995 32.5412 34.9772 32.7697C37.3435 33.3227 39.2107 34.7288 39.9189 36.4908C40.0858 36.9065 40.2481 37.3757 40.2795 37.5335L40.3363 37.8205L41.8497 37.8492L43.3631 37.8781L43.4164 41.6668C43.4619 44.8992 43.4954 45.5966 43.6449 46.4159C43.8852 47.7339 44.366 48.8782 44.8362 49.2512C45.2256 49.5601 45.8903 49.7147 45.9908 49.5198C46.024 49.4553 45.9715 48.7039 45.874 47.85C45.6316 45.7276 45.4794 42.2141 45.5446 40.246C45.5928 38.7918 45.6176 38.5961 45.7731 38.4428C45.9768 38.242 48.8718 38.0631 49.3336 38.2228L49.597 38.314L49.6472 42.7794C49.689 46.5104 49.7221 47.3659 49.8488 47.9814C50.08 49.1043 50.258 49.6238 50.5745 50.099C50.8355 50.491 51.7143 51.2763 51.7827 51.1786C51.8107 51.1386 52.1242 47.3732 52.2724 45.2977C52.3159 44.6899 52.4342 43.1271 52.5356 41.8247C52.6369 40.5223 52.7541 39.0007 52.796 38.4433C52.9262 36.7093 53.0548 36.6021 54.9529 36.6448C56.6388 36.6827 56.8756 36.7406 56.9127 37.1235C56.9335 37.3383 56.9793 37.4005 57.0883 37.3622C59.4712 36.5248 61.2646 36.4536 62.5076 37.1467C63.0254 37.4354 63.8903 38.5296 64.0242 39.0652C64.1791 39.685 64.2769 39.6196 64.3439 38.8516C64.4857 37.2261 64.5988 36.9134 65.1336 36.6698C65.5329 36.4877 68.1863 36.5396 68.4495 36.7345C68.4873 36.7625 68.5182 36.8836 68.5182 37.0036C68.5182 37.2523 68.7609 37.2365 69.6596 36.929C70.9861 36.4752 72.9942 36.4849 73.8379 36.9492C74.758 37.4555 75.5248 38.5131 75.7245 39.5516C76.2618 42.3444 75.4556 45.9243 73.6999 48.5427C72.1814 50.8074 70.5758 52.1632 67.7153 53.5965C67.2353 53.837 67.2569 53.7413 67.1051 56.2957C67.05 57.2218 66.9602 58.3584 66.9055 58.8215L66.8061 59.6634L66.2982 59.6951C65.8325 59.7242 64.11 59.4901 63.6105 59.3299C63.3685 59.2524 63.3616 59.1744 63.7326 60.7159C63.885 61.3494 63.9777 62.0472 64.0125 62.8233L64.0645 63.9836L64.6889 63.6047C65.0324 63.3963 65.7814 62.973 66.3531 62.6642L67.3929 62.1027L67.6701 62.2973C67.8227 62.4044 68.3031 62.8066 68.7377 63.1912C69.5522 63.9119 71.9469 66.0047 72.1633 66.1849C72.2304 66.2406 72.3137 66.2522 72.3486 66.2104C72.3834 66.1687 72.4267 64.9864 72.4449 63.5831C72.4821 60.705 72.4878 60.6436 72.748 60.3531C73.0065 60.0644 74.8484 58.6004 75.221 58.3874L75.5233 58.2146L77.0035 59.1392C77.8176 59.6478 78.5627 60.1225 78.6593 60.1942C79.0484 60.4831 84.8681 64.1483 84.8882 64.1171C84.9002 64.0987 85.0879 63.6574 85.3055 63.1365C86.4178 60.4732 87.7543 58.6978 89.7158 57.2778C90.1469 56.9657 90.5132 56.6614 90.5298 56.6014C90.5465 56.5415 90.1938 56.3622 89.7461 56.2029C85.9159 54.8408 83.339 52.2045 82.2652 48.5496C82.05 47.8171 81.7762 46.0001 81.7762 45.3039C81.7762 44.5454 82.1496 42.205 82.3976 41.4099C83.2864 38.5593 85.2876 36.1941 87.5656 35.3018C88.4597 34.9516 88.7308 34.9145 88.8749 35.1226C88.9277 35.1989 89.0348 35.7317 89.1126 36.3066C89.4285 38.636 89.5515 39.7301 89.5063 39.8096C89.4803 39.8556 89.2613 39.9565 89.0198 40.0338C88.7784 40.111 88.4097 40.2685 88.2005 40.3837C87.5219 40.7572 86.4876 42.056 86.2978 42.7726C86.2424 42.9816 86.2605 42.9977 86.4868 42.9416C87.1991 42.7651 89.8982 42.3498 90.4896 42.3259L91.1692 42.2983L91.1703 41.7194C91.1755 38.5769 92.7806 36.03 95.2537 35.2396C95.9629 35.013 98.2288 34.9043 98.4135 35.0881C98.5289 35.2028 98.5394 35.5134 98.4902 37.3389C98.4588 38.5037 98.4022 39.5573 98.3644 39.6802C98.3008 39.8871 98.2176 39.9074 97.2576 39.9508C95.7111 40.0208 95.2098 40.3916 95.2098 41.4656C95.2098 42.3873 95.674 43.3271 96.8392 44.7651C98.7002 47.0614 99.1738 47.9709 99.4097 49.7012C99.7179 51.9615 99.1274 54.005 97.6978 55.6267C96.6608 56.8029 95.4318 57.5368 93.3784 58.206C93.2901 58.2348 93.2752 58.3472 93.3215 58.6385C93.564 60.1671 93.6193 61.7114 93.4319 61.7218C92.2134 61.789 91.2552 62.4371 90.3198 63.8263C89.8742 64.4881 89.4285 65.4505 89.5178 65.5576C89.5424 65.5872 90.5073 65.4479 91.6619 65.2482C92.8164 65.0484 94.1546 64.8705 94.6357 64.8527C95.6552 64.815 95.5673 64.6999 95.7364 66.2938C96.0244 69.0079 96.0883 69.861 96.0107 69.954C95.9653 70.0084 94.6504 70.3569 93.0886 70.7283C91.5268 71.0998 90.198 71.4255 90.1355 71.452C89.715 71.6307 91.4013 73.3964 92.8475 74.2918C93.5736 74.7413 95.8214 75.7131 96.135 75.7131C96.3752 75.7131 96.375 76.0166 96.1341 76.9513C95.7378 78.4893 95.5876 79.0952 95.375 80.0136C95.139 81.0338 95.0563 81.108 94.3683 80.9162C91.6822 80.1678 88.649 78.155 87.0449 76.0568C85.557 74.1105 84.5946 71.4738 84.4246 68.8781L84.3664 67.9895L84.0477 68.7203C83.8338 69.2107 83.6704 69.4617 83.5505 69.4835C83.4506 69.5017 81.9244 68.6361 80.0815 67.5161C78.2717 66.4162 76.7669 65.5451 76.7374 65.5804C76.6627 65.67 76.677 66.9266 76.7676 68.2394C76.8752 69.7971 76.7489 71.127 76.4124 71.9807C76.0977 72.779 75.4921 73.6165 74.9583 73.9915C74.5588 74.2721 73.6265 74.6606 73.3526 74.6606C73.2156 74.6606 72.7429 74.2443 70.6839 72.3103C69.9136 71.5868 68.8754 70.6265 68.7344 70.5072C68.6684 70.4514 68.5829 70.4436 68.5444 70.4899C68.3839 70.6826 68.5054 74.5737 68.7272 76.3445C68.9141 77.8374 68.9271 78.0974 68.8195 78.1977C68.6698 78.3371 65.361 78.8999 64.6111 78.9135L64.0842 78.923L64.0137 77.1339C63.9749 76.1498 63.9603 72.9531 63.9811 70.0299C64.0126 65.5891 64.0004 64.793 63.9064 65.1887C63.1589 68.3364 61.4724 70.5733 59.2113 71.4158C58.2676 71.7675 56.1052 71.7675 54.9968 71.4159C53.4851 70.9363 51.8756 69.7545 51.0611 68.5262C50.0945 67.0684 49.7725 65.9047 49.7885 63.9258C49.8028 62.148 50.1204 60.9029 50.9378 59.4196C51.2579 58.839 51.3376 58.4912 51.4393 57.2353L51.4994 56.491L51.0312 56.3651C50.7736 56.296 50.1815 56.0079 49.7154 55.725C48.8965 55.228 48.8663 55.2183 48.8194 55.4374C48.5907 56.5035 47.562 60.529 47.3763 61.0842C47.2001 61.6108 46.5458 64.1447 46.5783 64.1743C46.5968 64.1911 47.1057 64.3108 47.7093 64.4404C49.5033 64.8256 49.4449 64.7954 49.5174 65.3749C49.5926 65.9764 49.2863 68.5897 49.0194 69.6235C48.8574 70.2509 48.8118 70.3287 48.5727 70.386C48.3466 70.4402 47.3352 70.2822 45.6021 69.9219C45.3848 69.8768 45.1797 69.8707 45.1465 69.9086C45.1133 69.9464 44.9815 70.4035 44.8535 70.9245C44.4662 72.5027 44.2141 73.4995 43.7555 75.2667C43.6543 75.657 43.5191 76.213 43.4551 76.5024C43.391 76.7918 43.2365 77.3982 43.1116 77.85C42.9866 78.3017 42.8425 78.8583 42.7911 79.0866C42.708 79.4563 42.6681 79.5018 42.4267 79.5018C42.1826 79.5018 38.7219 78.2438 38.4023 78.0387C38.2354 77.9317 38.1843 77.5369 38.3005 77.2497C38.3496 77.1281 38.4965 76.6261 38.6268 76.134C38.7571 75.642 38.9925 74.7659 39.1501 74.187C39.3076 73.6082 39.5432 72.7084 39.6739 72.1874C39.8044 71.6665 39.9467 71.1218 39.9899 70.9771C40.0793 70.6777 40.5096 68.8935 40.5096 68.8223C40.5096 68.7181 38.2159 68.1355 37.8055 68.1355C37.6639 68.1355 37.5931 68.2781 37.445 68.8622C37.3438 69.262 37.2614 69.6291 37.262 69.6779C37.2625 69.7268 37.1028 70.3825 36.9069 71.135C36.7111 71.8875 36.4748 72.8233 36.3819 73.2146C36.0691 74.5313 35.8711 75.3384 35.5628 76.555C35.069 78.5034 34.8154 79.5339 34.7522 79.8499C34.638 80.4209 34.4163 80.4787 33.4813 80.1811C31.6588 79.6008 30.45 79.1549 30.3296 79.0186C30.1984 78.8696 30.2698 78.4597 30.7685 76.5024C30.857 76.1551 31.0137 75.5157 31.1166 75.0816C31.2196 74.6475 31.3589 74.0792 31.4263 73.8187C31.5874 73.1951 31.8009 72.336 32.3026 70.293C32.53 69.3669 32.7855 68.3487 32.8704 68.0303C32.9553 67.7119 33.05 67.3223 33.0807 67.1643C33.1461 66.8284 33.1825 66.8444 31.8172 66.6053C31.3102 66.5165 30.8484 66.3863 30.791 66.3161C30.7105 66.2176 30.7131 66.0448 30.8024 65.5571C30.8661 65.2098 31.0294 64.1262 31.1653 63.1492C31.3186 62.0467 31.4667 61.2924 31.5553 61.1611L31.6983 60.9495L32.9651 61.1689C33.6618 61.2897 34.2633 61.3508 34.3018 61.3049C34.4334 61.1482 35.5084 57.1758 35.8996 55.4011C35.9825 55.0248 36.1216 54.4092 36.2086 54.0329C36.2956 53.6567 36.3934 53.1949 36.4258 53.0067C36.522 52.4481 36.7386 52.4601 38.5218 53.1229C39.3978 53.4485 40.3219 53.7883 40.5754 53.878C40.9031 53.9939 41.0364 54.0941 41.0364 54.2245C41.0364 54.3253 40.8359 55.2114 40.591 56.1937C40.346 57.1759 39.994 58.5952 39.8088 59.3477C39.6235 60.1002 39.3757 61.1057 39.2581 61.5822C39.0128 62.5758 38.9317 62.457 40.0267 62.7082C40.413 62.797 40.9535 62.9344 41.2278 63.0138C41.5021 63.0931 41.7642 63.1295 41.8103 63.0946C41.8563 63.0598 41.9981 62.6287 42.1252 62.1367C42.2524 61.6447 42.3928 61.1474 42.4372 61.0316C42.5172 60.8229 44.0371 55.2125 44.0558 55.0569C44.0611 55.0124 43.8473 54.8681 43.5805 54.7364C40.9398 53.4318 39.5568 49.7711 39.3488 43.5349C39.322 42.732 39.2257 42.7042 38.8119 43.3798C38.153 44.4558 36.6701 46.0401 35.3139 47.1174C34.4912 47.7708 32.4504 49.0145 31.4877 49.4492C31.0071 49.6661 30.8415 49.7925 30.8128 49.9641C30.7595 50.2826 30.5063 52.4352 30.3961 53.5067C30.2773 54.6616 30.2465 54.7036 29.5818 54.619C27.8531 54.3991 26.7426 54.2185 26.5586 54.1275L26.3484 54.0237L26.4086 52.6338C26.4417 51.8694 26.5068 50.8414 26.5533 50.3494C26.5997 49.8574 26.6934 48.8392 26.7616 48.0867C26.9877 45.5855 27.1668 43.7833 27.2945 42.7193C27.364 42.1404 27.4648 41.1712 27.5183 40.5655C27.5719 39.9597 27.6333 39.43 27.6548 39.3883C27.6763 39.3466 27.7549 38.753 27.8293 38.0691C28.0564 35.9829 28.4362 34.3144 28.4362 34.1432C28.4362 33.9719 28.4362 33.8269 28.4362 33.8269V33.3114C28.5027 33.3192 29.2207 32.6343 30.6569 32.4104ZM55.9626 61.3582C55.0831 61.6402 54.5742 62.4061 54.5625 63.4653C54.546 64.9708 55.5886 66.0191 57.1977 66.115C58.0595 66.1663 58.3965 66.0212 58.9705 65.3514C59.8679 64.3046 59.9768 62.6618 59.2009 61.8792C58.5878 61.2609 57.0418 61.0121 55.9626 61.3582ZM47.6745 54.4855C47.5288 54.6132 47.533 54.6302 47.7377 54.7421C47.8584 54.8079 48.1087 54.8911 48.2941 54.927L48.6312 54.992L48.3272 54.6704C47.9885 54.3119 47.9009 54.2871 47.6745 54.4855ZM63.4801 46.3502C62.6239 48.3201 61.0347 50.4599 59.5186 51.6843C58.7033 52.3427 57.3681 53.1819 56.4455 53.6156C55.7498 53.9428 55.729 53.9739 55.6716 54.7696L55.6221 55.4537L57.1313 55.4588C58.818 55.4643 59.3881 55.5893 60.503 56.1977C61.2994 56.6322 61.8614 57.0921 62.3944 57.7457C62.6555 58.0659 62.8247 58.2055 62.8462 58.1186C62.8945 57.9227 63.1482 55.0005 63.21 53.9277C63.2383 53.4357 63.2969 52.6542 63.3403 52.1912C63.3836 51.7281 63.4604 50.6625 63.5111 49.8232C63.5616 48.9839 63.6459 47.8946 63.6984 47.4026C63.7508 46.9106 63.7797 46.3423 63.7626 46.1397L63.7316 45.7713L63.4801 46.3502ZM91.3531 43.8243C91.349 44.0269 91.3928 44.7972 91.4503 45.536C91.5151 46.3697 91.5236 46.9163 91.4726 46.9767C91.3976 47.0654 89.415 47.584 87.5711 47.9972C87.1606 48.0892 86.7914 48.2011 86.7507 48.2459C86.6484 48.3585 87.2212 49.0952 87.8674 49.6818C88.5212 50.2756 89.2054 50.6593 90.5963 51.2128C91.178 51.4444 91.6871 51.6709 91.7275 51.7166C91.7681 51.7622 91.7217 52.1362 91.6245 52.5478C91.5274 52.9594 91.4745 53.3011 91.507 53.3069C91.683 53.3386 92.2713 53.2664 92.9709 53.1272C95.359 52.6517 96.0166 51.1646 94.7589 49.0834C94.6026 48.8248 94.076 48.0922 93.5887 47.4554C92.2529 45.7101 91.8167 44.9412 91.4089 43.6138C91.3822 43.527 91.3571 43.6217 91.3531 43.8243ZM58.5089 41.5724C57.7178 41.895 56.858 42.4286 56.7596 42.6581C56.6473 42.9196 56.5922 43.4213 56.4467 45.5082C56.372 46.5791 56.2886 47.5855 56.2614 47.7446C56.1888 48.1706 56.3428 48.1183 57.1911 47.4293C58.1098 46.683 59.2434 45.3415 59.6411 44.5298C60.2384 43.3108 60.5406 41.8546 60.2756 41.4718C60.0924 41.2071 59.2929 41.2526 58.5089 41.5724ZM70.7132 41.266C70.2587 41.3571 69.5935 41.6541 68.9376 42.0585C68.1666 42.5339 68.228 42.3727 68.0852 44.2979C68.0379 44.9346 67.9556 45.8961 67.9021 46.4347C67.7472 47.9971 67.7424 47.9885 68.4691 47.4565C70.3427 46.0849 71.7295 43.897 71.8339 42.1478C71.8771 41.4221 71.8737 41.4072 71.641 41.3012C71.4045 41.1933 71.1274 41.1828 70.7132 41.266ZM32.2352 37.4686C32.2095 37.5201 32.1616 37.8702 32.1289 38.2464C32.0961 38.6227 32.0305 39.2031 31.9832 39.5362C31.8703 40.331 31.555 43.1936 31.5544 43.4297C31.5541 43.5309 31.616 43.6138 31.6919 43.6138C31.8788 43.6138 33.5911 42.5774 34.1792 42.1083C35.563 41.0044 36.3927 39.4759 36.0386 38.6826C35.9139 38.4034 35.3059 38.0272 34.4957 37.7277C33.8433 37.4866 32.3136 37.3112 32.2352 37.4686Z" stroke="black" stroke-width="2" mask="url(#path-2-outside-2_49_213)"/>
<mask id="path-3-outside-3_49_213" maskUnits="userSpaceOnUse" x="50.7423" y="14.7677" width="29" height="22" fill="black">
<rect fill="white" x="50.7423" y="14.7677" width="29" height="22"/>
<path d="M57.3799 18.0498C54.7506 18.083 53.3201 18.1365 53.0302 18.0498C53.0302 18.0498 52.3831 18.0498 51.9623 18.3507C51.7156 18.5271 51.7951 19.1584 51.7951 19.1584C51.8126 19.1584 51.7506 19.6738 51.7462 20.4703C51.7357 22.3174 51.6526 22.2266 53.265 22.1298C54.4821 22.0567 54.7812 22.1211 54.6914 22.4372C54.6574 22.5567 54.3991 25.0149 54.212 26.999C54.0862 28.3324 53.8693 30.3086 53.7213 31.4696C53.535 32.9297 53.5507 33.3728 53.7933 33.4947C53.9933 33.5952 55.8334 33.8135 56.4804 33.8135C56.9101 33.8135 56.8888 33.8806 57.1089 31.8402C57.2019 30.9789 57.3554 29.6323 57.4503 28.8479C57.5452 28.0634 57.6843 26.8874 57.7597 26.2346C57.835 25.5816 57.9337 24.8447 57.9791 24.597C58.0244 24.3491 58.0894 23.7898 58.1235 23.354C58.2272 22.0304 58.1224 22.1196 59.6005 22.095L60.8779 22.0738L60.761 22.529C60.4787 23.6277 60.3311 24.1733 60.2132 24.5538C60.0485 25.0854 60.1203 25.1809 60.8988 25.4654L61.5192 25.6923L61.4585 26.3456C61.4251 26.7049 61.3244 27.4269 61.2347 27.9498C61.145 28.4728 60.9655 29.6139 60.8357 30.4855C60.7059 31.3571 60.5671 32.2283 60.5273 32.4216C60.3916 33.0784 60.3554 33.0584 62.4903 33.5061C63.4554 33.7084 63.6306 33.7207 63.7282 33.5927C63.7908 33.5108 63.9706 32.6117 64.1277 31.5948C64.285 30.5779 64.4505 29.6033 64.4955 29.429C64.5406 29.2546 64.6146 28.7967 64.6602 28.4114C64.7878 27.3301 64.8627 27.1563 65.159 27.2534C65.497 27.3642 65.4862 27.4691 64.7421 31.3023C64.4818 32.6429 64.4354 33.2368 64.582 33.3489C64.7571 33.4827 67.4639 34.1258 67.5959 34.065C67.7168 34.0091 68.0908 32.2337 68.5169 29.6931C68.6736 28.7593 68.6584 28.7682 69.5327 29.1033C69.9519 29.264 70.3689 29.3721 70.4594 29.3437C70.594 29.3013 70.6992 29.4752 71.0349 30.2946C71.957 32.5454 73.8018 34.2367 76.4202 35.232C77.2692 35.5548 77.6341 35.5792 77.7194 35.3191C77.9313 34.6722 78.5834 31.7379 78.531 31.6672C78.4959 31.6199 78.1892 31.4951 77.8493 31.3899C76.5427 30.9854 74.8653 29.9845 74.9545 29.6625C74.9717 29.6005 75.5252 29.4197 76.1846 29.2603C76.844 29.1011 77.6066 28.8927 77.8794 28.7973C78.3463 28.6339 78.3727 28.607 78.3288 28.3396C78.3032 28.1833 78.2158 27.5325 78.1347 26.8933C78.0536 26.2541 77.9599 25.541 77.9264 25.3085L77.8656 24.8859L77.2985 24.894C76.7892 24.9012 75.8653 25.0195 74.7576 25.2192L74.3642 25.29L74.5022 25.0352C74.7106 24.65 75.52 24.0199 76.1607 23.744C76.8265 23.4573 76.8038 23.6046 76.4979 21.5579C76.1779 19.416 76.1792 19.4185 75.4839 19.6358C73.361 20.2991 71.7723 21.9536 70.8917 24.4179L70.6078 25.2121L70.0478 25.0019C69.3947 24.7568 69.4137 24.8519 69.7065 23.2992C69.9739 21.8803 69.9923 21.1085 69.7651 20.8351C69.6195 20.6599 67.4924 20.0765 67.0055 20.0782C66.8155 20.0789 66.7185 20.3331 66.5416 21.2938C66.2572 22.8376 66.1696 23.2614 66.1235 23.3169C66.0975 23.3484 65.9547 23.342 65.8064 23.3028C65.5543 23.2362 65.4897 23.1355 65.5341 22.8785C65.5442 22.8204 65.588 22.4876 65.6314 22.139C65.7163 21.4568 66.0046 19.6872 66.2012 18.6418C66.5292 16.8966 66.4827 16.335 65.9968 16.1751C65.6131 16.0489 63.2538 15.7118 63.2007 15.7757C63.1267 15.8648 62.7954 17.5523 62.2836 20.4485C62.0319 21.8723 62.049 21.8194 61.8919 21.6625C61.786 21.5567 61.7612 21.2057 61.7612 19.8105C61.7612 18.5281 61.7332 18.0773 61.6515 18.0432C61.5912 18.018 59.6689 18.021 57.3799 18.0498Z"/>
</mask>
<path d="M57.3799 18.0498C54.7506 18.083 53.3201 18.1365 53.0302 18.0498C53.0302 18.0498 52.3831 18.0498 51.9623 18.3507C51.7156 18.5271 51.7951 19.1584 51.7951 19.1584C51.8126 19.1584 51.7506 19.6738 51.7462 20.4703C51.7357 22.3174 51.6526 22.2266 53.265 22.1298C54.4821 22.0567 54.7812 22.1211 54.6914 22.4372C54.6574 22.5567 54.3991 25.0149 54.212 26.999C54.0862 28.3324 53.8693 30.3086 53.7213 31.4696C53.535 32.9297 53.5507 33.3728 53.7933 33.4947C53.9933 33.5952 55.8334 33.8135 56.4804 33.8135C56.9101 33.8135 56.8888 33.8806 57.1089 31.8402C57.2019 30.9789 57.3554 29.6323 57.4503 28.8479C57.5452 28.0634 57.6843 26.8874 57.7597 26.2346C57.835 25.5816 57.9337 24.8447 57.9791 24.597C58.0244 24.3491 58.0894 23.7898 58.1235 23.354C58.2272 22.0304 58.1224 22.1196 59.6005 22.095L60.8779 22.0738L60.761 22.529C60.4787 23.6277 60.3311 24.1733 60.2132 24.5538C60.0485 25.0854 60.1203 25.1809 60.8988 25.4654L61.5192 25.6923L61.4585 26.3456C61.4251 26.7049 61.3244 27.4269 61.2347 27.9498C61.145 28.4728 60.9655 29.6139 60.8357 30.4855C60.7059 31.3571 60.5671 32.2283 60.5273 32.4216C60.3916 33.0784 60.3554 33.0584 62.4903 33.5061C63.4554 33.7084 63.6306 33.7207 63.7282 33.5927C63.7908 33.5108 63.9706 32.6117 64.1277 31.5948C64.285 30.5779 64.4505 29.6033 64.4955 29.429C64.5406 29.2546 64.6146 28.7967 64.6602 28.4114C64.7878 27.3301 64.8627 27.1563 65.159 27.2534C65.497 27.3642 65.4862 27.4691 64.7421 31.3023C64.4818 32.6429 64.4354 33.2368 64.582 33.3489C64.7571 33.4827 67.4639 34.1258 67.5959 34.065C67.7168 34.0091 68.0908 32.2337 68.5169 29.6931C68.6736 28.7593 68.6584 28.7682 69.5327 29.1033C69.9519 29.264 70.3689 29.3721 70.4594 29.3437C70.594 29.3013 70.6992 29.4752 71.0349 30.2946C71.957 32.5454 73.8018 34.2367 76.4202 35.232C77.2692 35.5548 77.6341 35.5792 77.7194 35.3191C77.9313 34.6722 78.5834 31.7379 78.531 31.6672C78.4959 31.6199 78.1892 31.4951 77.8493 31.3899C76.5427 30.9854 74.8653 29.9845 74.9545 29.6625C74.9717 29.6005 75.5252 29.4197 76.1846 29.2603C76.844 29.1011 77.6066 28.8927 77.8794 28.7973C78.3463 28.6339 78.3727 28.607 78.3288 28.3396C78.3032 28.1833 78.2158 27.5325 78.1347 26.8933C78.0536 26.2541 77.9599 25.541 77.9264 25.3085L77.8656 24.8859L77.2985 24.894C76.7892 24.9012 75.8653 25.0195 74.7576 25.2192L74.3642 25.29L74.5022 25.0352C74.7106 24.65 75.52 24.0199 76.1607 23.744C76.8265 23.4573 76.8038 23.6046 76.4979 21.5579C76.1779 19.416 76.1792 19.4185 75.4839 19.6358C73.361 20.2991 71.7723 21.9536 70.8917 24.4179L70.6078 25.2121L70.0478 25.0019C69.3947 24.7568 69.4137 24.8519 69.7065 23.2992C69.9739 21.8803 69.9923 21.1085 69.7651 20.8351C69.6195 20.6599 67.4924 20.0765 67.0055 20.0782C66.8155 20.0789 66.7185 20.3331 66.5416 21.2938C66.2572 22.8376 66.1696 23.2614 66.1235 23.3169C66.0975 23.3484 65.9547 23.342 65.8064 23.3028C65.5543 23.2362 65.4897 23.1355 65.5341 22.8785C65.5442 22.8204 65.588 22.4876 65.6314 22.139C65.7163 21.4568 66.0046 19.6872 66.2012 18.6418C66.5292 16.8966 66.4827 16.335 65.9968 16.1751C65.6131 16.0489 63.2538 15.7118 63.2007 15.7757C63.1267 15.8648 62.7954 17.5523 62.2836 20.4485C62.0319 21.8723 62.049 21.8194 61.8919 21.6625C61.786 21.5567 61.7612 21.2057 61.7612 19.8105C61.7612 18.5281 61.7332 18.0773 61.6515 18.0432C61.5912 18.018 59.6689 18.021 57.3799 18.0498Z" fill="#F3B621"/>
<path d="M57.3799 18.0498C54.7506 18.083 53.3201 18.1365 53.0302 18.0498C53.0302 18.0498 52.3831 18.0498 51.9623 18.3507C51.7156 18.5271 51.7951 19.1584 51.7951 19.1584C51.8126 19.1584 51.7506 19.6738 51.7462 20.4703C51.7357 22.3174 51.6526 22.2266 53.265 22.1298C54.4821 22.0567 54.7812 22.1211 54.6914 22.4372C54.6574 22.5567 54.3991 25.0149 54.212 26.999C54.0862 28.3324 53.8693 30.3086 53.7213 31.4696C53.535 32.9297 53.5507 33.3728 53.7933 33.4947C53.9933 33.5952 55.8334 33.8135 56.4804 33.8135C56.9101 33.8135 56.8888 33.8806 57.1089 31.8402C57.2019 30.9789 57.3554 29.6323 57.4503 28.8479C57.5452 28.0634 57.6843 26.8874 57.7597 26.2346C57.835 25.5816 57.9337 24.8447 57.9791 24.597C58.0244 24.3491 58.0894 23.7898 58.1235 23.354C58.2272 22.0304 58.1224 22.1196 59.6005 22.095L60.8779 22.0738L60.761 22.529C60.4787 23.6277 60.3311 24.1733 60.2132 24.5538C60.0485 25.0854 60.1203 25.1809 60.8988 25.4654L61.5192 25.6923L61.4585 26.3456C61.4251 26.7049 61.3244 27.4269 61.2347 27.9498C61.145 28.4728 60.9655 29.6139 60.8357 30.4855C60.7059 31.3571 60.5671 32.2283 60.5273 32.4216C60.3916 33.0784 60.3554 33.0584 62.4903 33.5061C63.4554 33.7084 63.6306 33.7207 63.7282 33.5927C63.7908 33.5108 63.9706 32.6117 64.1277 31.5948C64.285 30.5779 64.4505 29.6033 64.4955 29.429C64.5406 29.2546 64.6146 28.7967 64.6602 28.4114C64.7878 27.3301 64.8627 27.1563 65.159 27.2534C65.497 27.3642 65.4862 27.4691 64.7421 31.3023C64.4818 32.6429 64.4354 33.2368 64.582 33.3489C64.7571 33.4827 67.4639 34.1258 67.5959 34.065C67.7168 34.0091 68.0908 32.2337 68.5169 29.6931C68.6736 28.7593 68.6584 28.7682 69.5327 29.1033C69.9519 29.264 70.3689 29.3721 70.4594 29.3437C70.594 29.3013 70.6992 29.4752 71.0349 30.2946C71.957 32.5454 73.8018 34.2367 76.4202 35.232C77.2692 35.5548 77.6341 35.5792 77.7194 35.3191C77.9313 34.6722 78.5834 31.7379 78.531 31.6672C78.4959 31.6199 78.1892 31.4951 77.8493 31.3899C76.5427 30.9854 74.8653 29.9845 74.9545 29.6625C74.9717 29.6005 75.5252 29.4197 76.1846 29.2603C76.844 29.1011 77.6066 28.8927 77.8794 28.7973C78.3463 28.6339 78.3727 28.607 78.3288 28.3396C78.3032 28.1833 78.2158 27.5325 78.1347 26.8933C78.0536 26.2541 77.9599 25.541 77.9264 25.3085L77.8656 24.8859L77.2985 24.894C76.7892 24.9012 75.8653 25.0195 74.7576 25.2192L74.3642 25.29L74.5022 25.0352C74.7106 24.65 75.52 24.0199 76.1607 23.744C76.8265 23.4573 76.8038 23.6046 76.4979 21.5579C76.1779 19.416 76.1792 19.4185 75.4839 19.6358C73.361 20.2991 71.7723 21.9536 70.8917 24.4179L70.6078 25.2121L70.0478 25.0019C69.3947 24.7568 69.4137 24.8519 69.7065 23.2992C69.9739 21.8803 69.9923 21.1085 69.7651 20.8351C69.6195 20.6599 67.4924 20.0765 67.0055 20.0782C66.8155 20.0789 66.7185 20.3331 66.5416 21.2938C66.2572 22.8376 66.1696 23.2614 66.1235 23.3169C66.0975 23.3484 65.9547 23.342 65.8064 23.3028C65.5543 23.2362 65.4897 23.1355 65.5341 22.8785C65.5442 22.8204 65.588 22.4876 65.6314 22.139C65.7163 21.4568 66.0046 19.6872 66.2012 18.6418C66.5292 16.8966 66.4827 16.335 65.9968 16.1751C65.6131 16.0489 63.2538 15.7118 63.2007 15.7757C63.1267 15.8648 62.7954 17.5523 62.2836 20.4485C62.0319 21.8723 62.049 21.8194 61.8919 21.6625C61.786 21.5567 61.7612 21.2057 61.7612 19.8105C61.7612 18.5281 61.7332 18.0773 61.6515 18.0432C61.5912 18.018 59.6689 18.021 57.3799 18.0498Z" stroke="black" stroke-width="2" mask="url(#path-3-outside-3_49_213)"/>
<mask id="path-4-outside-4_49_213" maskUnits="userSpaceOnUse" x="19" y="0" width="89" height="36" fill="black">
<rect fill="white" x="19" width="89" height="36"/>
<path d="M21.7121 34.5284C21.9093 34.9804 22.0489 34.968 22.8202 34.4291C23.2249 34.1465 24.1091 33.5513 24.7852 33.1066C27.5082 31.3153 27.8616 31.0781 27.9416 30.9879C28.1209 30.8701 28.0788 30.867 28.1209 30.8701L33.8639 27.099C34.7324 26.5209 35.6974 25.8784 36.4628 25.3686C37.7666 24.5003 39.0902 23.6206 39.4041 23.414C39.718 23.2072 41.496 22.0175 43.3552 20.77C47.0451 18.2941 50.1089 16.4502 50.1591 16.4502L51.5083 15.5056C51.2855 15.6695 48.0904 17.6756 48.3632 17.5313C48.4902 17.4641 52.6675 14.8047 52.9814 14.5938C54.2148 13.7648 57.3483 11.4345 58.7643 10.5001C59.5853 9.95835 60.7508 9.18392 61.3545 8.77927C63.51 7.33406 64.4993 6.69972 64.5979 6.69972C64.653 6.69972 64.805 6.78879 64.9359 6.89761C65.0668 7.00643 66.3986 7.94029 67.8956 8.97272C69.3927 10.0053 71.1114 11.1952 71.715 11.6172C72.3186 12.0391 73.8596 13.1092 75.1393 13.9952C76.419 14.8812 78.7106 16.472 80.2317 17.5303C81.7529 18.5886 83.2741 19.6438 83.6121 19.8748C85.2744 21.0117 92.2185 25.8072 92.8559 26.2587C93.2558 26.5419 93.5959 26.7736 93.6118 26.7736C93.6276 26.7736 94.3277 27.2571 95.1675 27.8479C96.0074 28.4387 96.9513 29.0954 97.2652 29.3074C97.5791 29.5192 98.9225 30.4465 100.25 31.3681C103.609 33.6989 104.034 33.9773 104.146 33.9233C104.201 33.8972 104.574 33.1931 104.976 32.3586C105.378 31.524 105.825 30.608 105.969 30.3232C106.185 29.8965 106.211 29.7809 106.117 29.668C106.009 29.5403 105.099 28.9053 99.0212 24.7157C97.7415 23.8336 96.1611 22.7391 95.5092 22.2833C94.0911 21.292 92.2794 20.0367 87.4754 16.7171C85.4954 15.349 83.2433 13.7902 82.4707 13.2531C79.4811 11.1747 74.434 7.68894 73.471 7.03739C72.4763 6.36439 71.4546 5.65768 68.8615 3.84934C66.0739 1.90524 64.6933 0.994728 64.5415 1.00001C64.4546 1.00307 64.3046 1.06784 64.208 1.14391C64.1114 1.21998 63.1829 1.84354 62.1447 2.52964C59.9113 4.00549 60.2638 3.77095 56.7449 6.12202C55.1996 7.15445 53.5204 8.2676 53.0133 8.59576C52.5063 8.92391 51.1629 9.81371 50.0281 10.573C48.8932 11.3322 46.088 13.2038 43.7942 14.7317C41.5004 16.2597 37.332 19.0389 34.5311 20.9076C31.7303 22.7764 27.878 25.3426 25.9705 26.6103C20.1329 30.4901 20 30.5828 20 30.7747C20 30.8726 20.0555 31.0481 20.1234 31.1647C20.1913 31.2813 20.3704 31.6603 20.5215 32.007C20.6726 32.3536 20.8316 32.7086 20.8749 32.7958C21.1726 33.3956 21.6388 34.3603 21.7121 34.5284Z"/>
</mask>
<path d="M21.7121 34.5284C21.9093 34.9804 22.0489 34.968 22.8202 34.4291C23.2249 34.1465 24.1091 33.5513 24.7852 33.1066C27.5082 31.3153 27.8616 31.0781 27.9416 30.9879C28.1209 30.8701 28.0788 30.867 28.1209 30.8701L33.8639 27.099C34.7324 26.5209 35.6974 25.8784 36.4628 25.3686C37.7666 24.5003 39.0902 23.6206 39.4041 23.414C39.718 23.2072 41.496 22.0175 43.3552 20.77C47.0451 18.2941 50.1089 16.4502 50.1591 16.4502L51.5083 15.5056C51.2855 15.6695 48.0904 17.6756 48.3632 17.5313C48.4902 17.4641 52.6675 14.8047 52.9814 14.5938C54.2148 13.7648 57.3483 11.4345 58.7643 10.5001C59.5853 9.95835 60.7508 9.18392 61.3545 8.77927C63.51 7.33406 64.4993 6.69972 64.5979 6.69972C64.653 6.69972 64.805 6.78879 64.9359 6.89761C65.0668 7.00643 66.3986 7.94029 67.8956 8.97272C69.3927 10.0053 71.1114 11.1952 71.715 11.6172C72.3186 12.0391 73.8596 13.1092 75.1393 13.9952C76.419 14.8812 78.7106 16.472 80.2317 17.5303C81.7529 18.5886 83.2741 19.6438 83.6121 19.8748C85.2744 21.0117 92.2185 25.8072 92.8559 26.2587C93.2558 26.5419 93.5959 26.7736 93.6118 26.7736C93.6276 26.7736 94.3277 27.2571 95.1675 27.8479C96.0074 28.4387 96.9513 29.0954 97.2652 29.3074C97.5791 29.5192 98.9225 30.4465 100.25 31.3681C103.609 33.6989 104.034 33.9773 104.146 33.9233C104.201 33.8972 104.574 33.1931 104.976 32.3586C105.378 31.524 105.825 30.608 105.969 30.3232C106.185 29.8965 106.211 29.7809 106.117 29.668C106.009 29.5403 105.099 28.9053 99.0212 24.7157C97.7415 23.8336 96.1611 22.7391 95.5092 22.2833C94.0911 21.292 92.2794 20.0367 87.4754 16.7171C85.4954 15.349 83.2433 13.7902 82.4707 13.2531C79.4811 11.1747 74.434 7.68894 73.471 7.03739C72.4763 6.36439 71.4546 5.65768 68.8615 3.84934C66.0739 1.90524 64.6933 0.994728 64.5415 1.00001C64.4546 1.00307 64.3046 1.06784 64.208 1.14391C64.1114 1.21998 63.1829 1.84354 62.1447 2.52964C59.9113 4.00549 60.2638 3.77095 56.7449 6.12202C55.1996 7.15445 53.5204 8.2676 53.0133 8.59576C52.5063 8.92391 51.1629 9.81371 50.0281 10.573C48.8932 11.3322 46.088 13.2038 43.7942 14.7317C41.5004 16.2597 37.332 19.0389 34.5311 20.9076C31.7303 22.7764 27.878 25.3426 25.9705 26.6103C20.1329 30.4901 20 30.5828 20 30.7747C20 30.8726 20.0555 31.0481 20.1234 31.1647C20.1913 31.2813 20.3704 31.6603 20.5215 32.007C20.6726 32.3536 20.8316 32.7086 20.8749 32.7958C21.1726 33.3956 21.6388 34.3603 21.7121 34.5284Z" fill="#D0262A"/>
<path d="M27.7136 31.1647L28.02 31.5598L28.248 31.383L27.9416 30.9879L27.6353 30.5927L27.4072 30.7696L27.7136 31.1647ZM50.1591 16.4502V17.4502H50.4744L50.7326 17.2694L50.1591 16.4502ZM51.5083 15.5056L52.1009 16.311L50.9347 14.6864L51.5083 15.5056ZM48.3632 17.5313L47.8956 16.6474L48.3632 17.5313ZM52.9814 14.5938L53.5391 15.4238L53.5392 15.4238L52.9814 14.5938ZM58.7643 10.5001L59.3151 11.3348L59.3151 11.3348L58.7643 10.5001ZM50.0281 10.573L50.5841 11.4042L50.5842 11.4041L50.0281 10.573ZM100.25 31.3681L99.6803 32.1896L99.6803 32.1897L100.25 31.3681ZM104.146 33.9233L104.578 34.8253L104.578 34.8253L104.146 33.9233ZM99.0212 24.7157L98.4537 25.5391L98.4537 25.5391L99.0212 24.7157ZM95.5092 22.2833L96.0822 21.4637L96.0821 21.4637L95.5092 22.2833ZM33.8639 27.099L34.4128 27.935L34.418 27.9315L33.8639 27.099ZM36.4628 25.3686L35.9085 24.5363L35.9084 24.5364L36.4628 25.3686ZM56.7449 6.12202L57.3004 6.95352L57.3004 6.95351L56.7449 6.12202ZM39.4041 23.414L39.954 24.2492L39.9542 24.2491L39.4041 23.414ZM62.1447 2.52964L62.696 3.36394L62.696 3.36393L62.1447 2.52964ZM105.969 30.3232L106.862 30.775L106.862 30.7746L105.969 30.3232ZM27.9416 30.9879L27.3928 30.152L27.2818 30.2248L27.1937 30.3241L27.9416 30.9879ZM28.1209 30.8701L28.0461 31.8673L28.3854 31.8928L28.6698 31.706L28.1209 30.8701ZM106.117 29.668L105.351 30.3112L105.351 30.3114L106.117 29.668ZM87.4754 16.7171L88.0438 15.8944L88.0438 15.8944L87.4754 16.7171ZM82.4707 13.2531L81.8999 14.0742L81.8999 14.0742L82.4707 13.2531ZM43.3552 20.77L43.9123 21.6004L43.9124 21.6004L43.3552 20.77ZM68.8615 3.84934L68.2894 4.66957L68.2895 4.66959L68.8615 3.84934ZM64.5415 1.00001L64.5067 0.000615358L64.5062 0.000632465L64.5415 1.00001ZM24.7852 33.1066L25.3347 33.9421L25.3348 33.942L24.7852 33.1066ZM64.208 1.14391L63.5893 0.358314V0.358315L64.208 1.14391ZM43.7942 14.7317L43.2398 13.8994L43.2398 13.8995L43.7942 14.7317ZM97.2652 29.3074L96.7056 30.1361L96.7058 30.1363L97.2652 29.3074ZM34.5311 20.9076L33.9761 20.0757L33.9761 20.0758L34.5311 20.9076ZM25.9705 26.6103L25.417 25.7774L25.417 25.7774L25.9705 26.6103ZM92.8559 26.2587L93.434 25.4427L93.4339 25.4426L92.8559 26.2587ZM20.1234 31.1647L19.259 31.6677L19.2595 31.6685L20.1234 31.1647ZM83.6121 19.8748L84.1766 19.0494L84.1764 19.0493L83.6121 19.8748ZM20.5215 32.007L19.6047 32.4064L19.6048 32.4066L20.5215 32.007ZM20.8749 32.7958L21.7706 32.3511L21.7705 32.351L20.8749 32.7958ZM21.7121 34.5284L20.7955 34.9281L20.7955 34.9282L21.7121 34.5284ZM71.715 11.6172L71.1421 12.4368L71.1422 12.4369L71.715 11.6172ZM22.8202 34.4291L22.2476 33.6093L22.2475 33.6094L22.8202 34.4291ZM67.8956 8.97272L68.4634 8.14954L68.4634 8.14951L67.8956 8.97272ZM73.471 7.03739L74.0315 6.20917L74.0314 6.20913L73.471 7.03739ZM64.9359 6.89761L64.2964 7.6664L64.2966 7.66661L64.9359 6.89761ZM61.3545 8.77927L61.9113 9.60991L61.9113 9.60986L61.3545 8.77927ZM50.1591 16.4502L50.7326 17.2694L52.0818 16.3247L51.5083 15.5056L50.9347 14.6864L49.5855 15.631L50.1591 16.4502ZM51.5083 15.5056L50.9156 14.7001C50.9169 14.6992 50.8719 14.7299 50.7532 14.807C50.6481 14.8753 50.5085 14.965 50.3457 15.0691C50.0205 15.2771 49.6103 15.5377 49.2133 15.7902C48.8176 16.0418 48.4344 16.2857 48.1669 16.4578C48.0349 16.5428 47.9243 16.6146 47.8539 16.6619C47.8343 16.675 47.7739 16.7151 47.7246 16.7547C47.7149 16.7625 47.6977 16.7766 47.6773 16.795C47.6655 16.8057 47.6145 16.8515 47.5608 16.9198C47.5384 16.9484 47.471 17.0356 47.4189 17.1652C47.3813 17.2587 47.2337 17.6701 47.5135 18.0916C47.7845 18.4999 48.2051 18.5326 48.2933 18.5373C48.426 18.5444 48.5284 18.5228 48.5634 18.5151C48.6456 18.4969 48.7072 18.472 48.7221 18.466C48.7472 18.4559 48.7672 18.4468 48.7784 18.4415C48.8013 18.4307 48.8203 18.4208 48.8307 18.4153L48.3632 17.5313L47.8956 16.6474C47.8975 16.6464 47.9096 16.6399 47.9274 16.6316C47.936 16.6275 47.9538 16.6193 47.9771 16.61C47.9902 16.6047 48.0504 16.5802 48.1317 16.5623C48.1662 16.5546 48.2682 16.5331 48.4006 16.5402C48.4885 16.5449 48.909 16.5775 49.1799 16.9856C49.4595 17.407 49.312 17.8183 49.2745 17.9115C49.2224 18.0408 49.1553 18.1277 49.1331 18.1559C49.0801 18.2234 49.03 18.2683 49.0196 18.2777C49.0006 18.2949 48.9851 18.3075 48.9775 18.3136C48.9452 18.3396 48.9256 18.3512 48.9678 18.323C49.0207 18.2875 49.1168 18.225 49.2494 18.1396C49.5113 17.971 49.8896 17.7302 50.2865 17.4778C51.0464 16.9946 51.9532 16.4197 52.1009 16.311L51.5083 15.5056ZM48.3632 17.5313L48.8307 18.4153C48.9078 18.3745 49.2487 18.1592 49.6287 17.9188C50.0442 17.6561 50.5889 17.3102 51.1391 16.9601C52.2296 16.2661 53.3686 15.5384 53.5391 15.4238L52.9814 14.5938L52.4237 13.7637C52.2803 13.8601 51.1736 14.5675 50.0653 15.2728C49.516 15.6223 48.973 15.9671 48.5597 16.2285C48.111 16.5123 47.882 16.6546 47.8956 16.6474L48.3632 17.5313ZM52.9814 14.5938L53.5392 15.4238C54.1734 14.9975 55.284 14.1939 56.3889 13.3979C57.5101 12.5901 58.6282 11.7881 59.3151 11.3348L58.7643 10.5001L58.2135 9.66548C57.4844 10.1466 56.3278 10.9769 55.2198 11.7751C54.0957 12.5851 53.0228 13.3611 52.4236 13.7638L52.9814 14.5938ZM53.0133 8.59576L52.47 7.75623C51.956 8.08889 50.6071 8.9824 49.472 9.74192L50.0281 10.573L50.5842 11.4041C51.7187 10.645 53.0566 9.75893 53.5566 9.43528L53.0133 8.59576ZM100.25 31.3681L99.6803 32.1897C101.355 33.3516 102.313 34.013 102.867 34.3762C103.136 34.5528 103.347 34.6834 103.509 34.7662C103.587 34.8057 103.708 34.8624 103.849 34.8966C103.997 34.9324 104.277 34.9696 104.578 34.8253L104.146 33.9233L103.715 33.0212C103.988 32.8905 104.229 32.9308 104.319 32.9526C104.403 32.9728 104.446 32.9984 104.415 32.983C104.362 32.9559 104.235 32.8814 103.964 32.7038C103.438 32.3585 102.505 31.7154 100.821 30.5465L100.25 31.3681ZM99.0212 24.7157L99.5888 23.8924C98.3095 23.0106 96.7313 21.9175 96.0822 21.4637L95.5092 22.2833L94.9362 23.1029C95.5909 23.5606 97.1736 24.6567 98.4537 25.5391L99.0212 24.7157ZM33.8639 27.099L34.418 27.9315C35.2865 27.3534 36.2517 26.7108 37.0171 26.2009L36.4628 25.3686L35.9084 24.5364C35.1432 25.0461 34.1782 25.6885 33.3098 26.2666L33.8639 27.099ZM56.7449 6.12202L56.1894 5.29052C54.6429 6.32369 52.9699 7.43273 52.47 7.75623L53.0133 8.59576L53.5566 9.43528C54.0709 9.10248 55.7562 7.98521 57.3004 6.95352L56.7449 6.12202ZM104.146 33.9233L104.578 34.8253C104.792 34.723 104.917 34.5649 104.919 34.5617C104.957 34.518 104.986 34.4775 105.003 34.4527C105.039 34.4003 105.074 34.3437 105.103 34.2945C105.164 34.1922 105.236 34.06 105.314 33.9127C105.472 33.615 105.672 33.2184 105.877 32.7926L104.976 32.3586L104.075 31.9246C103.879 32.3333 103.691 32.706 103.548 32.9755C103.475 33.1118 103.419 33.2127 103.382 33.2758C103.362 33.3093 103.356 33.3185 103.359 33.3129C103.36 33.3114 103.375 33.2896 103.401 33.2595C103.414 33.2444 103.44 33.2153 103.477 33.1814C103.505 33.1558 103.587 33.0822 103.715 33.0213L104.146 33.9233ZM36.4628 25.3686L37.0171 26.201C38.3219 25.332 39.6429 24.4541 39.954 24.2492L39.4041 23.414L38.8542 22.5787C38.5376 22.7872 37.2114 23.6686 35.9085 24.5363L36.4628 25.3686ZM62.1447 2.52964L61.5934 1.69534C59.358 3.1725 59.709 2.93898 56.1893 5.29053L56.7449 6.12202L57.3004 6.95351C60.8186 4.60291 60.4645 4.83849 62.696 3.36394L62.1447 2.52964ZM104.976 32.3586L105.877 32.7926C106.28 31.9566 106.723 31.0495 106.862 30.775L105.969 30.3232L105.077 29.8714C104.928 30.1666 104.477 31.0915 104.075 31.9246L104.976 32.3586ZM27.9416 30.9879L28.4905 31.8237C28.5519 31.7834 28.6033 31.7471 28.6478 31.713C28.6957 31.6763 28.7278 31.6481 28.744 31.6338C28.7585 31.621 28.7321 31.645 28.7013 31.6686C28.6618 31.6989 28.5695 31.7654 28.434 31.8133C28.2941 31.8629 28.1751 31.8692 28.1127 31.8694C28.0672 31.8696 28.0255 31.8658 28.0461 31.8673L28.1209 30.8701L28.1957 29.8729C28.1953 29.8729 28.1846 29.8721 28.1732 29.8714C28.1616 29.8707 28.1361 29.8693 28.1042 29.8695C28.0354 29.8698 27.9113 29.8767 27.7666 29.928C27.6264 29.9776 27.5296 30.0468 27.4845 30.0813C27.4622 30.0984 27.445 30.1131 27.4371 30.1198C27.4294 30.1265 27.4221 30.1329 27.4214 30.1336C27.4204 30.1344 27.4269 30.1288 27.431 30.1257C27.4316 30.1252 27.421 30.1334 27.3928 30.152L27.9416 30.9879ZM106.117 29.668L106.882 29.0249C106.8 28.9266 106.705 28.8495 106.656 28.8108C106.592 28.759 106.51 28.6971 106.408 28.6225C106.203 28.4723 105.881 28.2444 105.38 27.8951C104.377 27.1946 102.627 25.9865 99.5888 23.8924L99.0212 24.7157L98.4537 25.5391C101.494 27.6346 103.238 28.8388 104.236 29.5351C104.736 29.8842 105.041 30.1008 105.227 30.2365C105.32 30.3049 105.374 30.3463 105.404 30.37C105.45 30.4069 105.407 30.3776 105.351 30.3112L106.117 29.668ZM87.4754 16.7171L88.0438 15.8944C86.0639 14.5263 83.8128 12.9682 83.0415 12.432L82.4707 13.2531L81.8999 14.0742C82.6738 14.6122 84.927 16.1718 86.9069 17.5398L87.4754 16.7171ZM39.4041 23.414L39.9542 24.2491C40.2726 24.0393 42.0553 22.8464 43.9123 21.6004L43.3552 20.77L42.798 19.9396C40.9366 21.1885 39.1634 22.3751 38.854 22.5789L39.4041 23.414ZM68.8615 3.84934L69.4335 3.02911C68.0382 2.05602 66.9875 1.33629 66.2636 0.858875C65.9034 0.621257 65.6133 0.436546 65.3978 0.308985C65.2919 0.24632 65.1881 0.188022 65.0951 0.142606C65.0497 0.120409 64.9891 0.0925481 64.9216 0.0683604C64.8876 0.0561669 64.7196 -0.00679314 64.5067 0.000615478L64.5415 1.00001L64.5762 1.99941C64.4615 2.0034 64.3742 1.98565 64.3374 1.97727C64.2939 1.96736 64.2622 1.95658 64.2471 1.9512C64.2179 1.94072 64.2053 1.93378 64.2175 1.93977C64.24 1.95073 64.2908 1.97789 64.3792 2.03022C64.5523 2.13264 64.8102 2.29608 65.1625 2.52844C65.8638 2.99099 66.8971 3.69856 68.2894 4.66957L68.8615 3.84934ZM43.3552 20.77L43.9124 21.6004C45.7469 20.3694 47.426 19.2954 48.6518 18.5298C49.2648 18.1469 49.7628 17.8421 50.1089 17.6341C50.2825 17.5297 50.4149 17.4515 50.5033 17.4005C50.5485 17.3744 50.5765 17.3587 50.5905 17.3512C50.599 17.3466 50.5935 17.3497 50.5804 17.3561C50.5753 17.3585 50.5542 17.3687 50.5248 17.3804C50.5107 17.3861 50.4806 17.3977 50.441 17.4095C50.4235 17.4146 50.3095 17.4502 50.1591 17.4502V16.4502V15.4502C50.0079 15.4502 49.8927 15.486 49.8737 15.4916C49.8326 15.5037 49.8006 15.5161 49.7842 15.5226C49.7503 15.5361 49.7233 15.549 49.7108 15.555C49.6829 15.5685 49.657 15.5823 49.6394 15.5918C49.6012 15.6125 49.5546 15.6389 49.504 15.668C49.4008 15.7276 49.2568 15.8127 49.0785 15.9199C48.7207 16.135 48.2127 16.4459 47.5922 16.8335C46.3511 17.6088 44.6534 18.6947 42.798 19.9396L43.3552 20.77ZM24.7852 33.1066L25.3348 33.942C26.6946 33.0475 27.4683 32.5373 27.9118 32.2396C28.1319 32.0919 28.2814 31.9893 28.3838 31.9152C28.467 31.855 28.588 31.7661 28.6896 31.6516L27.9416 30.9879L27.1937 30.3241C27.2552 30.2548 27.302 30.2293 27.2113 30.2949C27.1399 30.3466 27.0159 30.4322 26.7972 30.579C26.3632 30.8703 25.5988 31.3744 24.2356 32.2712L24.7852 33.1066ZM95.5092 22.2833L96.0821 21.4637C94.6614 20.4705 92.8473 19.2136 88.0438 15.8944L87.4754 16.7171L86.9069 17.5398C91.7115 20.8598 93.5208 22.1134 94.9362 23.1029L95.5092 22.2833ZM64.208 1.14391L63.5893 0.358315C63.5985 0.351021 63.5578 0.380743 63.4265 0.470485C63.3129 0.548158 63.1579 0.652969 62.9719 0.777853C62.6004 1.02735 62.1109 1.35336 61.5933 1.69535L62.1447 2.52964L62.696 3.36393C63.7038 2.69795 64.6873 2.03936 64.8267 1.9295L64.208 1.14391ZM50.0281 10.573L49.472 9.74188C48.338 10.5005 45.5334 12.3716 43.2398 13.8994L43.7942 14.7317L44.3486 15.564C46.6425 14.0359 49.4485 12.164 50.5841 11.4042L50.0281 10.573ZM97.2652 29.3074L96.7058 30.1363C97.013 30.3436 98.3501 31.2665 99.6803 32.1896L100.25 31.3681L100.821 30.5465C99.4948 29.6265 98.1452 28.6948 97.8246 28.4785L97.2652 29.3074ZM43.7942 14.7317L43.2398 13.8995C40.9457 15.4277 36.7772 18.207 33.9761 20.0757L34.5311 20.9076L35.0861 21.7394C37.8868 19.8709 42.055 17.0918 44.3486 15.564L43.7942 14.7317ZM95.1675 27.8479L94.5922 28.6658C95.4313 29.2561 96.3827 29.9181 96.7056 30.1361L97.2652 29.3074L97.8248 28.4786C97.52 28.2727 96.5834 27.6213 95.7429 27.03L95.1675 27.8479ZM34.5311 20.9076L33.9761 20.0758C31.1756 21.9443 27.3238 24.5102 25.417 25.7774L25.9705 26.6103L26.524 27.4431C28.4322 26.1749 32.285 23.6084 35.0861 21.7394L34.5311 20.9076ZM93.6118 26.7736V27.7736C93.4753 27.7736 93.3717 27.7449 93.3386 27.7355C93.2925 27.7224 93.2569 27.7086 93.2375 27.7008C93.1984 27.6849 93.1692 27.6701 93.1579 27.6643C93.1328 27.6514 93.1149 27.6407 93.1118 27.6388C93.1021 27.6331 93.0988 27.6308 93.1069 27.636C93.1206 27.6448 93.1458 27.6615 93.1847 27.6877C93.261 27.7391 93.3725 27.8155 93.5125 27.9121C93.7914 28.1047 94.1739 28.3715 94.5922 28.6658L95.1675 27.8479L95.7429 27.03C95.3214 26.7334 94.9339 26.4631 94.6489 26.2663C94.5068 26.1682 94.3879 26.0868 94.3022 26.029C94.2601 26.0007 94.2215 25.975 94.1906 25.955C94.1764 25.9459 94.1556 25.9326 94.1335 25.9195C94.1242 25.914 94.1014 25.9005 94.0726 25.8857C94.0596 25.879 94.0289 25.8635 93.9886 25.8472C93.9686 25.8391 93.9325 25.8251 93.886 25.8119C93.8525 25.8023 93.7486 25.7736 93.6118 25.7736V26.7736ZM25.9705 26.6103L25.417 25.7774C22.5047 27.713 20.9989 28.7148 20.2241 29.2553C19.851 29.5155 19.5944 29.7045 19.4314 29.8559C19.3498 29.9317 19.2258 30.0568 19.1328 30.2328C19.0139 30.4581 19 30.6607 19 30.7747H20H21C21 30.8407 20.9903 30.9984 20.9014 31.1667C20.8386 31.2857 20.7705 31.3418 20.7925 31.3213C20.8369 31.2801 20.9784 31.1676 21.3682 30.8957C22.1193 30.3718 23.5986 29.3874 26.524 27.4431L25.9705 26.6103ZM92.8559 26.2587L92.2779 27.0747C92.4813 27.2188 92.6715 27.3512 92.8148 27.4488C92.8857 27.4971 92.9496 27.5399 92.9996 27.5723C93.0233 27.5876 93.0522 27.6061 93.0807 27.623C93.0931 27.6304 93.119 27.6456 93.1507 27.6617C93.1651 27.6691 93.1973 27.6852 93.2392 27.7019C93.2601 27.7102 93.2968 27.7241 93.3437 27.7371C93.3791 27.7469 93.4798 27.7736 93.6118 27.7736V26.7736V25.7736C93.6841 25.7736 93.7429 25.7815 93.7812 25.7881C93.8212 25.795 93.8542 25.8032 93.8779 25.8098C93.924 25.8226 93.9598 25.8361 93.9795 25.844C94.0191 25.8598 94.0485 25.8745 94.0595 25.8802C94.0842 25.8927 94.1008 25.9027 94.1017 25.9032C94.1069 25.9063 94.1035 25.9045 94.0868 25.8936C94.0561 25.8737 94.007 25.841 93.9408 25.7959C93.8102 25.7069 93.6304 25.5818 93.434 25.4427L92.8559 26.2587ZM20 30.7747H19C19 30.9727 19.0479 31.1538 19.0828 31.2642C19.1225 31.3896 19.1807 31.533 19.259 31.6677L20.1234 31.1647L20.9877 30.6618C20.9947 30.6739 20.9963 30.6784 20.9945 30.6742C20.993 30.6707 20.9911 30.6657 20.9897 30.6611C20.9881 30.656 20.9891 30.6581 20.9912 30.6687C20.9923 30.6744 20.9942 30.6853 20.996 30.7009C20.9977 30.7158 21 30.7412 21 30.7747H20ZM83.6121 19.8748L83.0476 20.7003C84.7103 21.8374 91.6481 26.6286 92.278 27.0747L92.8559 26.2587L93.4339 25.4426C92.7889 24.9858 85.8386 20.186 84.1766 19.0494L83.6121 19.8748ZM20.1234 31.1647L19.2595 31.6685C19.258 31.6659 19.2609 31.6707 19.2691 31.6864C19.2767 31.7008 19.2866 31.7201 19.2988 31.7444C19.3232 31.7931 19.3533 31.8551 19.3872 31.9268C19.4549 32.0703 19.5332 32.2424 19.6047 32.4064L20.5215 32.007L21.4382 31.6076C21.2901 31.2675 21.0891 30.8358 20.9872 30.661L20.1234 31.1647ZM80.2317 17.5303L79.6606 18.3512C81.1801 19.4084 82.7055 20.4664 83.0478 20.7004L83.6121 19.8748L84.1764 19.0493C83.8426 18.8211 82.3257 17.7689 80.8029 16.7094L80.2317 17.5303ZM20.5215 32.007L19.6048 32.4066C19.7523 32.7449 19.9224 33.1261 19.9792 33.2406L20.8749 32.7958L21.7705 32.351C21.7705 32.3511 21.7696 32.3491 21.7673 32.3444C21.7651 32.3399 21.7623 32.3339 21.7588 32.3263C21.7516 32.3111 21.7426 32.2916 21.7317 32.2678C21.7099 32.2203 21.6825 32.1597 21.6512 32.0898C21.5886 31.9502 21.5125 31.7779 21.4382 31.6074L20.5215 32.007ZM75.1393 13.9952L74.57 14.8174C75.849 15.7029 78.14 17.2932 79.6606 18.3512L80.2317 17.5303L80.8029 16.7094C79.2812 15.6508 76.9889 14.0595 75.7085 13.173L75.1393 13.9952ZM20.8749 32.7958L19.9791 33.2404C20.2803 33.8471 20.7342 34.7875 20.7955 34.9281L21.7121 34.5284L22.6287 34.1286C22.5435 33.933 22.0649 32.944 21.7706 32.3511L20.8749 32.7958ZM71.715 11.6172L71.1422 12.4369C71.7477 12.86 73.2901 13.9312 74.57 14.8174L75.1393 13.9952L75.7085 13.173C74.429 12.2872 72.8896 11.2181 72.2879 10.7975L71.715 11.6172ZM105.969 30.3232L106.862 30.7746C106.96 30.5814 107.082 30.3353 107.135 30.097C107.167 29.9549 107.189 29.7592 107.139 29.5381C107.088 29.3083 106.978 29.1389 106.882 29.0247L106.117 29.668L105.351 30.3114C105.302 30.2536 105.225 30.141 105.188 29.978C105.154 29.8235 105.174 29.7046 105.184 29.6588C105.193 29.6191 105.2 29.612 105.179 29.6606C105.159 29.7051 105.128 29.7709 105.077 29.8717L105.969 30.3232ZM21.7121 34.5284L20.7955 34.9282C20.8489 35.0506 20.9544 35.2839 21.1456 35.479C21.3994 35.7382 21.7509 35.8812 22.14 35.8464C22.4374 35.8197 22.6865 35.693 22.8385 35.6078C23.0096 35.5119 23.1976 35.3854 23.3929 35.2489L22.8202 34.4291L22.2475 33.6094C22.0572 33.7424 21.9385 33.8195 21.8604 33.8633C21.8233 33.8841 21.8126 33.8875 21.8215 33.884C21.8294 33.881 21.8801 33.8616 21.9617 33.8543C22.051 33.8463 22.1708 33.8535 22.3 33.9025C22.428 33.9509 22.5185 34.0225 22.5745 34.0797C22.6257 34.132 22.6492 34.1732 22.6506 34.1757C22.6526 34.1792 22.6458 34.1677 22.6287 34.1285L21.7121 34.5284ZM67.8956 8.97272L67.3279 9.79591C68.825 10.8285 70.5413 12.0168 71.1421 12.4368L71.715 11.6172L72.2879 10.7976C71.6814 10.3736 69.9604 9.18202 68.4634 8.14954L67.8956 8.97272ZM73.471 7.03739L74.0314 6.20913C73.0432 5.54062 72.027 4.83774 69.4335 3.02909L68.8615 3.84934L68.2895 4.66959C70.8821 6.47762 71.9093 7.18815 72.9107 7.86565L73.471 7.03739ZM22.8202 34.4291L23.3928 35.249C23.7867 34.9739 24.6623 34.3844 25.3347 33.9421L24.7852 33.1066L24.2357 32.2711C23.5559 32.7182 22.6631 33.3192 22.2476 33.6093L22.8202 34.4291ZM64.9359 6.89761L64.2966 7.66661C64.4032 7.75525 64.8201 8.05052 65.3294 8.40761C65.8684 8.78551 66.5778 9.27858 67.3279 9.79593L67.8956 8.97272L68.4634 8.14951C67.7165 7.63444 67.0115 7.14436 66.4776 6.77001C66.2104 6.58269 65.9874 6.42532 65.8241 6.3087C65.6411 6.17809 65.5721 6.1261 65.5751 6.12861L64.9359 6.89761ZM28.1209 30.8701L28.6698 31.706L34.4128 27.9349L33.8639 27.099L33.315 26.2631L27.572 30.0342L28.1209 30.8701ZM64.5415 1.00001L64.5062 0.000632465C64.281 0.00857824 64.0884 0.0806011 63.9822 0.126431C63.8574 0.180261 63.7176 0.257216 63.5893 0.358314L64.208 1.14391L64.8267 1.9295C64.8078 1.9444 64.795 1.95211 64.7902 1.95488C64.7848 1.95802 64.7801 1.96036 64.7746 1.96273C64.7699 1.96478 64.7563 1.97042 64.7331 1.97685C64.7152 1.9818 64.6592 1.99648 64.5767 1.99939L64.5415 1.00001ZM64.5979 6.69972V7.69972C64.482 7.69972 64.3954 7.67827 64.3591 7.66834C64.316 7.65655 64.285 7.6443 64.2699 7.63797C64.24 7.62551 64.227 7.61717 64.2332 7.62079C64.244 7.62716 64.2701 7.64457 64.2964 7.6664L64.9359 6.89761L65.5754 6.12882C65.4708 6.04183 65.3554 5.9603 65.2438 5.89493C65.1887 5.86268 65.1191 5.82528 65.0412 5.79271C64.9964 5.77396 64.8217 5.69972 64.5979 5.69972V6.69972ZM61.3545 8.77927L61.9113 9.60986C62.9883 8.88781 63.7673 8.37273 64.2873 8.03937C64.5487 7.87176 64.7352 7.75614 64.8575 7.68464C64.9204 7.64787 64.9525 7.63086 64.9627 7.62582C64.9688 7.62276 64.9531 7.63101 64.9233 7.64229C64.9083 7.648 64.8774 7.65919 64.8356 7.66996C64.802 7.6786 64.7142 7.69972 64.5979 7.69972V6.69972V5.69972C64.3931 5.69972 64.2335 5.7649 64.2145 5.77211C64.1584 5.79339 64.1092 5.81668 64.0746 5.83378C64.0034 5.86909 63.9252 5.91293 63.8478 5.95821C63.6895 6.0508 63.4755 6.1841 63.2078 6.35571C62.6695 6.70083 61.8762 7.22553 60.7976 7.94868L61.3545 8.77927ZM82.4707 13.2531L83.0415 12.432C80.0529 10.3543 75.0005 6.86488 74.0315 6.20917L73.471 7.03739L72.9106 7.8656C73.8674 8.513 78.9093 11.9951 81.8999 14.0742L82.4707 13.2531ZM58.7643 10.5001L59.3151 11.3348C60.1375 10.7921 61.3051 10.0162 61.9113 9.60991L61.3545 8.77927L60.7976 7.94864C60.1965 8.35159 59.033 9.12464 58.2135 9.66551L58.7643 10.5001Z" fill="black" mask="url(#path-4-outside-4_49_213)"/>
<mask id="path-6-outside-5_49_213" maskUnits="userSpaceOnUse" x="0" y="56" width="28" height="26" fill="black">
<rect fill="white" y="56" width="28" height="26"/>
<path fill-rule="evenodd" clip-rule="evenodd" d="M22.9164 57.0489C22.2377 57.1379 21.6655 57.2857 20.8682 57.5777C20.0117 57.8914 18.9024 58.4329 18.2405 58.8604L18.0875 58.9592L17.8289 58.8362C17.6866 58.7686 17.2794 58.5718 16.9239 58.3988C16.5684 58.2259 16.2776 58.094 16.2776 58.1058C16.2776 58.1175 16.412 58.5059 16.5762 58.9688L16.8748 59.8106L16.5611 60.0635L16.2474 60.3165L15.6641 60.0495C14.8021 59.6549 14.4902 59.5205 14.4906 59.5437C14.4908 59.5551 14.6392 59.9621 14.8205 60.4482L15.15 61.332L15.0515 61.4404C14.9973 61.5 14.8137 61.6999 14.6433 61.8847C12.7597 63.9278 11.1425 66.6162 10.6145 68.582C10.3783 69.4614 10.3208 70.4105 10.4714 70.942C10.489 71.0042 10.4953 71.0673 10.4854 71.0824C10.4755 71.0974 10.2271 71.2504 9.93343 71.4223C7.18222 73.0329 6.12815 73.649 6.03958 73.6984L5.93528 73.7565L3.47588 72.9864C2.12319 72.563 1.00934 72.2231 1.00063 72.2313C0.979852 72.2508 1.4776 73.0212 1.767 73.4174C2.25102 74.0801 2.93741 74.7478 3.90964 75.5017C4.95245 76.3104 5.41904 76.7485 5.76557 77.2445C6.39055 78.139 6.49951 79.2053 6.11245 80.6386C6.06827 80.8022 6.03214 80.9504 6.03214 80.968C6.03214 80.9906 8.05496 81 12.9238 81H19.8154L19.8326 80.9176C19.8421 80.8723 19.959 80.2623 20.0924 79.562C20.2258 78.8617 20.4701 77.5877 20.6353 76.7309C20.8004 75.874 20.9654 74.9977 21.0018 74.7835C21.3411 72.7887 21.6256 71.8436 22.3188 70.4095C22.6097 69.8077 23.6178 67.775 24.1686 66.6797C24.8237 65.3771 25.1649 64.7057 25.4858 64.0882C26.5448 62.0505 26.8521 61.2839 26.9687 60.3891C27.2591 58.1625 25.4973 56.7104 22.9164 57.0489ZM22.8757 58.263C22.1767 58.3785 21.3548 58.6487 20.4635 59.0561C19.6912 59.409 18.7672 59.9253 18.7672 60.0039C18.7672 60.0219 18.8677 60.3258 18.9906 60.6792C19.1135 61.0326 19.214 61.3394 19.214 61.361C19.214 61.3844 18.9244 61.2623 18.4978 61.059C18.1039 60.8714 17.7622 60.7178 17.7386 60.7178C17.654 60.7178 16.9955 61.2869 16.9995 61.3567C17.0016 61.3925 17.115 61.7221 17.2515 62.0891C17.3881 62.456 17.4928 62.7628 17.4843 62.7708C17.4759 62.7787 17.1542 62.6422 16.7695 62.4673L16.0702 62.1494L15.8989 62.3249C14.0772 64.1922 12.3794 66.9074 11.8573 68.7887C11.3315 70.6828 11.8012 71.7407 13.1685 71.7423C14.7626 71.7443 16.6438 70.0659 18.7186 66.7905C18.8432 66.5938 18.919 66.5022 18.9485 66.5128C19.0448 66.5475 19.5428 66.7686 19.5428 66.7905C19.5428 66.8546 18.724 68.1663 18.2405 68.8469C16.7524 70.9415 15.7835 72.2861 14.3661 72.7318C13.8735 72.8867 13.6535 72.9204 13.1338 72.9202C12.7464 72.92 12.6062 72.9077 12.3997 72.856C12.0126 72.7591 11.5424 72.5288 11.2923 72.3137L11.0805 72.1315L10.6549 72.3811C10.2454 72.6213 9.38241 73.1247 7.96314 73.9513C7.5945 74.1661 7.02024 74.5006 6.68702 74.6947L6.08117 75.0476L5.45023 74.8508C5.10322 74.7425 4.81929 74.6576 4.81929 74.662C4.81929 74.6665 4.97309 74.79 5.16112 74.9364C6.65533 76.1004 7.36074 77.1476 7.55013 78.4828C7.59753 78.817 7.60589 79.3731 7.56778 79.6593L7.54487 79.8316H8.79223H10.0396L10.0797 79.5551C10.1711 78.9254 10.476 78.2977 11.0131 77.6331C11.2995 77.2788 11.356 77.2177 11.3859 77.23C11.448 77.2556 12.2879 77.926 12.2879 77.95C12.2879 77.9649 12.1833 78.1078 12.0553 78.2677C11.6423 78.7838 11.472 79.0846 11.3598 79.4966C11.2573 79.8725 11.1052 79.8316 12.6051 79.8316H13.9117L13.8944 79.7193C13.8056 79.1424 13.6086 78.7165 13.1398 78.088L12.9006 77.7674L13.3044 77.4719C13.8541 77.0696 13.8723 77.0591 13.9344 77.1074C14.0406 77.1901 14.5718 77.9732 14.7154 78.2588C14.9497 78.7245 15.1605 79.4365 15.1605 79.762V79.8316H15.7434H16.3262L16.3297 79.4347C16.3365 78.638 16.5833 78.0055 17.1739 77.2701C17.5313 76.8253 17.5076 76.8472 17.5752 76.8971C17.794 77.0586 18.4339 77.5691 18.4424 77.5889C18.4481 77.6023 18.3376 77.7572 18.1968 77.9332C18.0561 78.1092 17.8982 78.3285 17.8461 78.4207C17.6388 78.7871 17.5314 79.2583 17.5709 79.6279L17.5927 79.8316H18.1793C18.7615 79.8316 18.7661 79.8311 18.7825 79.7642C18.821 79.6074 19.6703 75.1335 19.8042 74.3821C20.2026 72.146 20.4811 71.3023 21.4963 69.2561C22.2453 67.7464 23.9203 64.4064 24.4561 63.3542C25.3222 61.6535 25.4887 61.2697 25.6441 60.6169C25.7393 60.217 25.7567 59.6917 25.6842 59.4072L25.6441 59.25L25.4213 59.3724C24.6933 59.7725 23.9636 60.1529 23.9495 60.1396C23.9285 60.1199 24.1445 59.42 24.3628 58.8006C24.4563 58.5352 24.5214 58.3115 24.5074 58.3033C24.4935 58.2952 24.3726 58.2689 24.239 58.2449C23.9059 58.1851 23.2981 58.1932 22.8757 58.263Z"/>
</mask>
<path fill-rule="evenodd" clip-rule="evenodd" d="M22.9164 57.0489C22.2377 57.1379 21.6655 57.2857 20.8682 57.5777C20.0117 57.8914 18.9024 58.4329 18.2405 58.8604L18.0875 58.9592L17.8289 58.8362C17.6866 58.7686 17.2794 58.5718 16.9239 58.3988C16.5684 58.2259 16.2776 58.094 16.2776 58.1058C16.2776 58.1175 16.412 58.5059 16.5762 58.9688L16.8748 59.8106L16.5611 60.0635L16.2474 60.3165L15.6641 60.0495C14.8021 59.6549 14.4902 59.5205 14.4906 59.5437C14.4908 59.5551 14.6392 59.9621 14.8205 60.4482L15.15 61.332L15.0515 61.4404C14.9973 61.5 14.8137 61.6999 14.6433 61.8847C12.7597 63.9278 11.1425 66.6162 10.6145 68.582C10.3783 69.4614 10.3208 70.4105 10.4714 70.942C10.489 71.0042 10.4953 71.0673 10.4854 71.0824C10.4755 71.0974 10.2271 71.2504 9.93343 71.4223C7.18222 73.0329 6.12815 73.649 6.03958 73.6984L5.93528 73.7565L3.47588 72.9864C2.12319 72.563 1.00934 72.2231 1.00063 72.2313C0.979852 72.2508 1.4776 73.0212 1.767 73.4174C2.25102 74.0801 2.93741 74.7478 3.90964 75.5017C4.95245 76.3104 5.41904 76.7485 5.76557 77.2445C6.39055 78.139 6.49951 79.2053 6.11245 80.6386C6.06827 80.8022 6.03214 80.9504 6.03214 80.968C6.03214 80.9906 8.05496 81 12.9238 81H19.8154L19.8326 80.9176C19.8421 80.8723 19.959 80.2623 20.0924 79.562C20.2258 78.8617 20.4701 77.5877 20.6353 76.7309C20.8004 75.874 20.9654 74.9977 21.0018 74.7835C21.3411 72.7887 21.6256 71.8436 22.3188 70.4095C22.6097 69.8077 23.6178 67.775 24.1686 66.6797C24.8237 65.3771 25.1649 64.7057 25.4858 64.0882C26.5448 62.0505 26.8521 61.2839 26.9687 60.3891C27.2591 58.1625 25.4973 56.7104 22.9164 57.0489ZM22.8757 58.263C22.1767 58.3785 21.3548 58.6487 20.4635 59.0561C19.6912 59.409 18.7672 59.9253 18.7672 60.0039C18.7672 60.0219 18.8677 60.3258 18.9906 60.6792C19.1135 61.0326 19.214 61.3394 19.214 61.361C19.214 61.3844 18.9244 61.2623 18.4978 61.059C18.1039 60.8714 17.7622 60.7178 17.7386 60.7178C17.654 60.7178 16.9955 61.2869 16.9995 61.3567C17.0016 61.3925 17.115 61.7221 17.2515 62.0891C17.3881 62.456 17.4928 62.7628 17.4843 62.7708C17.4759 62.7787 17.1542 62.6422 16.7695 62.4673L16.0702 62.1494L15.8989 62.3249C14.0772 64.1922 12.3794 66.9074 11.8573 68.7887C11.3315 70.6828 11.8012 71.7407 13.1685 71.7423C14.7626 71.7443 16.6438 70.0659 18.7186 66.7905C18.8432 66.5938 18.919 66.5022 18.9485 66.5128C19.0448 66.5475 19.5428 66.7686 19.5428 66.7905C19.5428 66.8546 18.724 68.1663 18.2405 68.8469C16.7524 70.9415 15.7835 72.2861 14.3661 72.7318C13.8735 72.8867 13.6535 72.9204 13.1338 72.9202C12.7464 72.92 12.6062 72.9077 12.3997 72.856C12.0126 72.7591 11.5424 72.5288 11.2923 72.3137L11.0805 72.1315L10.6549 72.3811C10.2454 72.6213 9.38241 73.1247 7.96314 73.9513C7.5945 74.1661 7.02024 74.5006 6.68702 74.6947L6.08117 75.0476L5.45023 74.8508C5.10322 74.7425 4.81929 74.6576 4.81929 74.662C4.81929 74.6665 4.97309 74.79 5.16112 74.9364C6.65533 76.1004 7.36074 77.1476 7.55013 78.4828C7.59753 78.817 7.60589 79.3731 7.56778 79.6593L7.54487 79.8316H8.79223H10.0396L10.0797 79.5551C10.1711 78.9254 10.476 78.2977 11.0131 77.6331C11.2995 77.2788 11.356 77.2177 11.3859 77.23C11.448 77.2556 12.2879 77.926 12.2879 77.95C12.2879 77.9649 12.1833 78.1078 12.0553 78.2677C11.6423 78.7838 11.472 79.0846 11.3598 79.4966C11.2573 79.8725 11.1052 79.8316 12.6051 79.8316H13.9117L13.8944 79.7193C13.8056 79.1424 13.6086 78.7165 13.1398 78.088L12.9006 77.7674L13.3044 77.4719C13.8541 77.0696 13.8723 77.0591 13.9344 77.1074C14.0406 77.1901 14.5718 77.9732 14.7154 78.2588C14.9497 78.7245 15.1605 79.4365 15.1605 79.762V79.8316H15.7434H16.3262L16.3297 79.4347C16.3365 78.638 16.5833 78.0055 17.1739 77.2701C17.5313 76.8253 17.5076 76.8472 17.5752 76.8971C17.794 77.0586 18.4339 77.5691 18.4424 77.5889C18.4481 77.6023 18.3376 77.7572 18.1968 77.9332C18.0561 78.1092 17.8982 78.3285 17.8461 78.4207C17.6388 78.7871 17.5314 79.2583 17.5709 79.6279L17.5927 79.8316H18.1793C18.7615 79.8316 18.7661 79.8311 18.7825 79.7642C18.821 79.6074 19.6703 75.1335 19.8042 74.3821C20.2026 72.146 20.4811 71.3023 21.4963 69.2561C22.2453 67.7464 23.9203 64.4064 24.4561 63.3542C25.3222 61.6535 25.4887 61.2697 25.6441 60.6169C25.7393 60.217 25.7567 59.6917 25.6842 59.4072L25.6441 59.25L25.4213 59.3724C24.6933 59.7725 23.9636 60.1529 23.9495 60.1396C23.9285 60.1199 24.1445 59.42 24.3628 58.8006C24.4563 58.5352 24.5214 58.3115 24.5074 58.3033C24.4935 58.2952 24.3726 58.2689 24.239 58.2449C23.9059 58.1851 23.2981 58.1932 22.8757 58.263Z" fill="#4B2D26"/>
<path fill-rule="evenodd" clip-rule="evenodd" d="M22.9164 57.0489C22.2377 57.1379 21.6655 57.2857 20.8682 57.5777C20.0117 57.8914 18.9024 58.4329 18.2405 58.8604L18.0875 58.9592L17.8289 58.8362C17.6866 58.7686 17.2794 58.5718 16.9239 58.3988C16.5684 58.2259 16.2776 58.094 16.2776 58.1058C16.2776 58.1175 16.412 58.5059 16.5762 58.9688L16.8748 59.8106L16.5611 60.0635L16.2474 60.3165L15.6641 60.0495C14.8021 59.6549 14.4902 59.5205 14.4906 59.5437C14.4908 59.5551 14.6392 59.9621 14.8205 60.4482L15.15 61.332L15.0515 61.4404C14.9973 61.5 14.8137 61.6999 14.6433 61.8847C12.7597 63.9278 11.1425 66.6162 10.6145 68.582C10.3783 69.4614 10.3208 70.4105 10.4714 70.942C10.489 71.0042 10.4953 71.0673 10.4854 71.0824C10.4755 71.0974 10.2271 71.2504 9.93343 71.4223C7.18222 73.0329 6.12815 73.649 6.03958 73.6984L5.93528 73.7565L3.47588 72.9864C2.12319 72.563 1.00934 72.2231 1.00063 72.2313C0.979852 72.2508 1.4776 73.0212 1.767 73.4174C2.25102 74.0801 2.93741 74.7478 3.90964 75.5017C4.95245 76.3104 5.41904 76.7485 5.76557 77.2445C6.39055 78.139 6.49951 79.2053 6.11245 80.6386C6.06827 80.8022 6.03214 80.9504 6.03214 80.968C6.03214 80.9906 8.05496 81 12.9238 81H19.8154L19.8326 80.9176C19.8421 80.8723 19.959 80.2623 20.0924 79.562C20.2258 78.8617 20.4701 77.5877 20.6353 76.7309C20.8004 75.874 20.9654 74.9977 21.0018 74.7835C21.3411 72.7887 21.6256 71.8436 22.3188 70.4095C22.6097 69.8077 23.6178 67.775 24.1686 66.6797C24.8237 65.3771 25.1649 64.7057 25.4858 64.0882C26.5448 62.0505 26.8521 61.2839 26.9687 60.3891C27.2591 58.1625 25.4973 56.7104 22.9164 57.0489ZM22.8757 58.263C22.1767 58.3785 21.3548 58.6487 20.4635 59.0561C19.6912 59.409 18.7672 59.9253 18.7672 60.0039C18.7672 60.0219 18.8677 60.3258 18.9906 60.6792C19.1135 61.0326 19.214 61.3394 19.214 61.361C19.214 61.3844 18.9244 61.2623 18.4978 61.059C18.1039 60.8714 17.7622 60.7178 17.7386 60.7178C17.654 60.7178 16.9955 61.2869 16.9995 61.3567C17.0016 61.3925 17.115 61.7221 17.2515 62.0891C17.3881 62.456 17.4928 62.7628 17.4843 62.7708C17.4759 62.7787 17.1542 62.6422 16.7695 62.4673L16.0702 62.1494L15.8989 62.3249C14.0772 64.1922 12.3794 66.9074 11.8573 68.7887C11.3315 70.6828 11.8012 71.7407 13.1685 71.7423C14.7626 71.7443 16.6438 70.0659 18.7186 66.7905C18.8432 66.5938 18.919 66.5022 18.9485 66.5128C19.0448 66.5475 19.5428 66.7686 19.5428 66.7905C19.5428 66.8546 18.724 68.1663 18.2405 68.8469C16.7524 70.9415 15.7835 72.2861 14.3661 72.7318C13.8735 72.8867 13.6535 72.9204 13.1338 72.9202C12.7464 72.92 12.6062 72.9077 12.3997 72.856C12.0126 72.7591 11.5424 72.5288 11.2923 72.3137L11.0805 72.1315L10.6549 72.3811C10.2454 72.6213 9.38241 73.1247 7.96314 73.9513C7.5945 74.1661 7.02024 74.5006 6.68702 74.6947L6.08117 75.0476L5.45023 74.8508C5.10322 74.7425 4.81929 74.6576 4.81929 74.662C4.81929 74.6665 4.97309 74.79 5.16112 74.9364C6.65533 76.1004 7.36074 77.1476 7.55013 78.4828C7.59753 78.817 7.60589 79.3731 7.56778 79.6593L7.54487 79.8316H8.79223H10.0396L10.0797 79.5551C10.1711 78.9254 10.476 78.2977 11.0131 77.6331C11.2995 77.2788 11.356 77.2177 11.3859 77.23C11.448 77.2556 12.2879 77.926 12.2879 77.95C12.2879 77.9649 12.1833 78.1078 12.0553 78.2677C11.6423 78.7838 11.472 79.0846 11.3598 79.4966C11.2573 79.8725 11.1052 79.8316 12.6051 79.8316H13.9117L13.8944 79.7193C13.8056 79.1424 13.6086 78.7165 13.1398 78.088L12.9006 77.7674L13.3044 77.4719C13.8541 77.0696 13.8723 77.0591 13.9344 77.1074C14.0406 77.1901 14.5718 77.9732 14.7154 78.2588C14.9497 78.7245 15.1605 79.4365 15.1605 79.762V79.8316H15.7434H16.3262L16.3297 79.4347C16.3365 78.638 16.5833 78.0055 17.1739 77.2701C17.5313 76.8253 17.5076 76.8472 17.5752 76.8971C17.794 77.0586 18.4339 77.5691 18.4424 77.5889C18.4481 77.6023 18.3376 77.7572 18.1968 77.9332C18.0561 78.1092 17.8982 78.3285 17.8461 78.4207C17.6388 78.7871 17.5314 79.2583 17.5709 79.6279L17.5927 79.8316H18.1793C18.7615 79.8316 18.7661 79.8311 18.7825 79.7642C18.821 79.6074 19.6703 75.1335 19.8042 74.3821C20.2026 72.146 20.4811 71.3023 21.4963 69.2561C22.2453 67.7464 23.9203 64.4064 24.4561 63.3542C25.3222 61.6535 25.4887 61.2697 25.6441 60.6169C25.7393 60.217 25.7567 59.6917 25.6842 59.4072L25.6441 59.25L25.4213 59.3724C24.6933 59.7725 23.9636 60.1529 23.9495 60.1396C23.9285 60.1199 24.1445 59.42 24.3628 58.8006C24.4563 58.5352 24.5214 58.3115 24.5074 58.3033C24.4935 58.2952 24.3726 58.2689 24.239 58.2449C23.9059 58.1851 23.2981 58.1932 22.8757 58.263Z" stroke="black" stroke-width="2" mask="url(#path-6-outside-5_49_213)"/>
</svg>
